<svg xmlns="http://www.w3.org/2000/svg" width="1200pt" height="1200pt" viewBox="0 0 1200 1200"><path fill="#004689" opacity="1.00" d=" M 557.57 11.85 C 647.72 5.47 739.36 19.69 822.97 54.12 C 889.17 81.22 950.29 120.59 1002.45 169.53 C 1067.56 230.46 1118.60 306.36 1150.28 389.73 C 1185.55 482.00 1196.55 583.21 1182.99 680.98 C 1171.58 763.97 1141.95 844.36 1096.94 915.00 C 1057.50 977.04 1006.35 1031.57 947.00 1074.94 C 882.30 1122.30 807.81 1156.25 729.56 1173.78 C 633.04 1195.44 531.06 1192.57 436.02 1165.08 C 357.08 1142.38 283.15 1102.67 220.38 1049.72 C 171.12 1008.25 128.73 958.65 95.45 903.53 C 53.11 833.71 25.69 754.90 15.54 673.87 C 3.58 579.20 14.56 481.60 48.25 392.25 C 75.09 320.59 116.22 254.36 168.34 198.34 C 215.06 148.06 270.60 105.97 331.72 74.73 C 401.72 38.79 479.08 17.33 557.57 11.85 M 571.01 41.76 C 571.08 46.48 571.34 51.18 571.54 55.89 C 567.19 57.46 562.82 58.99 558.52 60.67 C 562.88 62.23 567.37 63.38 571.88 64.47 C 572.13 69.08 572.26 73.71 572.57 78.32 C 575.35 74.65 577.85 70.78 580.34 66.91 C 584.90 68.13 589.44 69.44 594.01 70.66 C 591.20 66.91 588.25 63.28 585.26 59.69 C 587.81 55.70 590.55 51.83 593.13 47.86 C 588.65 49.38 584.25 51.08 579.85 52.81 C 576.86 49.16 573.99 45.42 571.01 41.76 M 641.08 42.65 C 640.58 47.33 640.25 52.02 639.88 56.71 C 635.41 57.63 630.94 58.58 626.54 59.76 C 630.54 61.96 634.82 63.56 639.08 65.17 C 638.82 69.91 638.36 74.63 637.98 79.36 C 641.18 76.04 643.80 72.19 647.17 69.03 C 651.79 69.95 655.89 72.62 660.35 74.12 C 657.98 70.02 655.43 66.03 652.98 61.98 C 656.10 58.51 659.24 55.05 662.17 51.41 C 657.60 52.37 653.07 53.47 648.56 54.67 C 645.97 50.72 643.66 46.60 641.08 42.65 M 501.27 49.87 C 501.74 54.48 503.54 59.11 503.21 63.70 C 499.49 66.18 495.20 67.67 491.55 70.28 C 496.05 71.04 500.58 71.61 505.11 72.21 C 505.91 76.88 506.68 81.56 507.45 86.23 C 509.65 82.01 511.76 77.75 513.88 73.49 C 518.46 74.21 523.04 74.91 527.65 75.42 C 524.49 72.04 521.06 68.92 517.73 65.71 C 519.85 61.50 522.04 57.33 524.00 53.03 C 519.85 54.97 516.01 57.53 511.77 59.24 C 507.77 56.80 504.91 52.82 501.27 49.87 M 710.44 52.03 C 709.47 56.64 708.51 61.25 707.64 65.89 C 702.95 66.42 698.26 66.86 693.58 67.38 C 697.58 69.91 701.74 72.17 705.84 74.55 C 704.74 79.10 703.71 83.67 702.87 88.27 C 706.38 85.16 709.86 82.00 713.33 78.83 C 717.43 81.11 721.45 83.56 725.60 85.77 C 723.83 81.44 721.84 77.21 719.88 72.97 C 723.38 69.87 726.93 66.82 730.28 63.56 C 725.60 63.97 720.93 64.52 716.25 65.01 C 714.37 60.66 712.47 56.32 710.44 52.03 M 433.23 66.51 C 434.50 71.01 435.93 75.47 437.28 79.96 C 433.41 82.58 429.55 85.21 425.73 87.91 C 430.42 88.19 435.11 88.31 439.82 88.26 C 441.16 92.65 442.39 97.06 443.83 101.42 C 445.68 97.18 447.08 92.77 448.67 88.43 C 453.44 88.47 458.22 88.57 463.00 88.78 C 459.19 85.86 455.31 83.02 451.46 80.15 C 453.08 75.70 454.71 71.24 456.19 66.74 C 452.24 69.44 448.37 72.24 444.39 74.91 C 440.73 72.03 437.05 69.18 433.23 66.51 M 773.58 83.69 C 768.87 83.51 764.15 83.44 759.44 83.30 C 763.09 86.29 766.91 89.07 770.70 91.88 C 769.13 96.32 767.54 100.74 766.05 105.19 C 769.99 102.60 773.85 99.87 777.72 97.16 C 781.49 100.02 785.24 102.92 789.02 105.77 C 787.75 101.21 786.32 96.69 784.89 92.17 C 788.78 89.51 792.73 86.93 796.48 84.06 C 791.74 84.00 787.01 84.04 782.29 83.81 C 780.97 79.41 779.69 74.99 778.28 70.62 C 776.43 74.87 774.99 79.28 773.58 83.69 M 379.99 98.54 C 375.96 96.17 371.95 93.77 367.81 91.62 C 369.58 95.89 371.51 100.10 373.49 104.28 C 369.98 107.54 366.35 110.65 362.85 113.92 C 367.59 113.42 372.32 112.86 377.05 112.33 C 378.95 116.66 380.81 120.99 382.74 125.30 C 383.83 120.71 384.80 116.10 385.66 111.46 C 390.39 110.87 395.14 110.41 399.88 109.86 C 395.84 107.46 391.74 105.16 387.61 102.92 C 388.54 98.31 389.61 93.73 390.54 89.12 C 386.93 92.15 383.45 95.34 379.99 98.54 M 836.85 109.46 C 832.22 108.81 827.60 108.08 822.97 107.44 C 826.12 110.89 829.52 114.09 832.97 117.24 C 830.90 121.49 828.74 125.69 826.75 129.98 C 830.91 127.81 835.07 125.63 839.21 123.40 C 842.59 126.68 845.86 130.08 849.30 133.31 C 848.68 128.62 847.81 123.98 847.00 119.33 C 851.12 117.26 855.30 115.27 859.23 112.82 C 854.69 111.98 850.05 111.75 845.58 110.59 C 844.44 106.18 844.10 101.61 843.07 97.18 C 840.76 101.15 838.81 105.32 836.85 109.46 M 589.22 106.35 C 534.79 107.49 480.53 117.58 429.44 136.43 C 365.83 159.76 307.25 196.55 258.40 243.47 C 207.97 291.82 167.89 350.97 141.95 415.86 C 123.26 462.41 111.86 511.86 108.13 561.88 C 101.63 647.20 117.54 734.19 154.56 811.39 C 185.14 875.56 229.85 932.94 284.53 978.37 C 325.53 1012.52 372.10 1039.98 421.88 1059.22 C 465.11 1075.94 510.71 1086.46 556.90 1090.41 C 640.02 1097.65 724.97 1083.65 801.11 1049.41 C 870.42 1018.45 932.27 971.08 980.50 912.48 C 1030.39 852.04 1065.55 779.52 1081.84 702.85 C 1101.62 610.47 1094.44 512.40 1060.74 424.09 C 1042.57 376.18 1016.75 331.19 984.72 291.20 C 943.78 240.07 892.61 197.16 835.04 165.88 C 760.18 124.97 674.48 104.42 589.22 106.35 M 318.93 130.01 C 314.63 128.16 310.33 126.30 305.95 124.65 C 308.32 128.71 310.85 132.68 313.21 136.74 C 310.10 140.22 306.99 143.68 304.07 147.31 C 308.66 146.37 313.21 145.21 317.77 144.07 C 320.19 148.08 322.54 152.14 325.05 156.11 C 325.54 151.43 325.90 146.74 326.29 142.06 C 330.94 140.96 335.61 139.94 340.23 138.71 C 335.78 136.91 331.33 135.15 326.93 133.24 C 327.48 128.68 327.93 124.11 328.21 119.52 C 324.94 122.86 321.99 126.48 318.93 130.01 M 896.00 142.85 C 891.49 142.03 887.21 140.31 882.75 139.27 C 885.52 143.04 888.49 146.68 891.52 150.26 C 888.93 154.22 886.19 158.08 883.70 162.10 C 888.16 160.50 892.57 158.79 897.03 157.18 C 899.90 160.89 902.77 164.62 905.80 168.22 C 905.64 163.49 905.36 158.77 905.26 154.04 C 909.64 152.52 914.00 150.96 918.36 149.35 C 913.86 147.84 909.26 146.67 904.71 145.34 C 904.54 140.71 904.38 136.08 904.06 131.46 C 901.11 135.06 899.30 139.57 896.00 142.85 M 262.50 168.87 C 257.92 167.70 253.38 166.37 248.80 165.15 C 251.62 168.91 254.59 172.55 257.54 176.20 C 254.92 180.15 252.17 184.01 249.66 188.03 C 254.12 186.45 258.52 184.72 262.94 183.04 C 265.88 186.76 268.79 190.51 271.80 194.19 C 271.54 189.43 271.31 184.66 271.21 179.90 C 275.56 178.29 279.93 176.73 284.24 175.04 C 279.83 173.53 275.30 172.40 270.80 171.19 C 270.62 166.63 270.55 162.06 270.15 157.52 C 267.33 161.12 264.87 164.97 262.50 168.87 M 951.11 183.82 C 946.81 181.97 942.53 180.07 938.17 178.38 C 940.43 182.45 942.93 186.40 945.47 190.31 C 942.45 193.96 939.29 197.49 936.21 201.08 C 940.84 200.15 945.44 199.02 950.03 197.87 C 952.50 201.95 954.92 206.06 957.47 210.10 C 957.87 205.73 957.91 201.33 958.53 196.98 C 958.42 195.68 960.05 195.72 960.89 195.37 C 964.70 194.44 968.56 193.72 972.36 192.74 C 968.03 190.84 963.65 189.04 959.26 187.30 C 959.58 182.67 960.02 178.04 960.28 173.40 C 957.06 176.74 954.12 180.31 951.11 183.82 M 211.10 214.58 C 206.43 213.90 201.78 213.18 197.10 212.58 C 200.41 215.87 203.75 219.13 207.10 222.37 C 205.08 226.67 202.90 230.88 200.85 235.16 C 205.05 233.06 209.19 230.84 213.27 228.52 C 216.65 231.76 219.89 235.15 223.48 238.17 C 222.77 233.56 221.95 228.98 221.20 224.39 C 225.30 222.28 229.48 220.29 233.37 217.79 C 228.86 217.03 224.31 216.45 219.78 215.83 C 218.98 211.17 218.25 206.49 217.46 201.83 C 215.26 206.04 213.21 210.33 211.10 214.58 M 1000.54 231.11 C 996.38 228.81 992.32 226.35 988.16 224.07 C 990.02 228.40 992.03 232.67 993.97 236.96 C 990.53 240.07 987.02 243.11 983.70 246.35 C 988.36 245.98 993.02 245.46 997.68 244.98 C 999.45 249.26 1001.24 253.55 1003.45 257.64 C 1004.51 253.15 1005.35 248.62 1006.22 244.10 C 1010.92 243.59 1015.63 243.17 1020.34 242.66 C 1016.32 240.20 1012.23 237.87 1008.09 235.65 C 1008.95 230.98 1010.00 226.36 1010.98 221.72 C 1007.37 224.71 1003.95 227.90 1000.54 231.11 M 165.97 266.26 C 161.21 266.29 156.45 266.18 151.70 266.03 C 155.42 268.92 159.19 271.75 163.03 274.48 C 161.58 278.97 159.93 283.40 158.46 287.89 C 162.41 285.35 166.20 282.58 170.04 279.88 C 173.75 282.70 177.40 285.60 181.19 288.31 C 179.98 283.78 178.58 279.30 177.18 274.83 C 180.99 272.22 184.86 269.68 188.48 266.81 C 183.89 266.42 179.28 266.45 174.68 266.49 C 173.36 261.92 172.04 257.34 170.65 252.79 C 169.06 257.27 167.54 261.77 165.97 266.26 M 1032.17 275.75 C 1033.43 280.26 1034.86 284.73 1036.31 289.18 C 1032.53 291.87 1028.61 294.35 1025.04 297.31 C 1029.60 297.57 1034.18 297.53 1038.76 297.47 C 1040.20 302.01 1041.53 306.58 1042.91 311.13 C 1044.65 306.71 1046.13 302.20 1047.69 297.71 C 1052.31 297.99 1056.94 298.10 1061.57 298.15 C 1057.96 295.10 1054.11 292.36 1050.37 289.48 C 1052.00 285.10 1053.59 280.71 1054.92 276.24 C 1051.06 278.80 1047.31 281.53 1043.56 284.24 C 1039.70 281.49 1036.03 278.49 1032.17 275.75 M 130.54 309.53 C 129.58 314.16 128.64 318.79 127.60 323.41 C 122.99 323.80 118.39 324.23 113.82 324.90 C 117.76 327.38 121.86 329.60 125.87 331.98 C 124.79 336.60 123.76 341.23 122.88 345.89 C 126.40 342.66 129.90 339.40 133.49 336.24 C 137.48 338.67 141.50 341.04 145.61 343.26 C 143.76 338.93 141.81 334.64 139.89 330.34 C 143.31 327.24 146.80 324.20 150.20 321.07 C 145.51 321.22 140.86 321.85 136.19 322.27 C 134.47 317.95 132.66 313.66 130.54 309.53 M 1069.32 332.74 C 1070.05 337.30 1070.88 341.84 1071.71 346.39 C 1067.64 348.54 1063.45 350.46 1059.57 352.95 C 1064.08 353.79 1068.64 354.35 1073.19 355.05 C 1073.99 359.65 1074.74 364.27 1075.53 368.89 C 1077.83 364.80 1079.85 360.57 1081.81 356.31 C 1086.39 357.04 1090.96 357.80 1095.57 358.36 C 1092.68 354.69 1088.43 352.06 1085.98 348.17 C 1087.53 343.90 1090.04 340.07 1091.86 335.91 C 1087.63 337.91 1083.55 340.19 1079.38 342.27 C 1076.16 338.95 1072.79 335.79 1069.32 332.74 M 98.03 370.69 C 97.53 375.35 97.19 380.02 96.79 384.69 C 92.38 385.72 87.95 386.67 83.56 387.80 C 87.49 390.13 91.81 391.65 96.04 393.31 C 95.67 398.01 95.21 402.71 94.92 407.42 C 98.09 403.96 101.07 400.34 104.11 396.77 C 108.44 398.59 112.74 400.48 117.10 402.24 C 114.75 398.14 112.26 394.13 109.84 390.07 C 112.93 386.48 116.08 382.93 119.11 379.28 C 114.46 380.38 109.82 381.56 105.14 382.53 C 102.89 378.51 100.60 374.51 98.03 370.69 M 1099.00 393.40 C 1099.16 398.09 1099.40 402.77 1099.76 407.45 C 1095.40 409.17 1090.98 410.73 1086.60 412.42 C 1091.03 413.90 1095.55 415.10 1100.08 416.27 C 1100.30 420.94 1100.45 425.61 1100.64 430.28 C 1103.49 426.62 1105.93 422.67 1108.37 418.73 C 1112.94 419.89 1117.44 421.31 1122.01 422.50 C 1119.18 418.68 1116.12 415.03 1113.28 411.23 C 1115.89 407.44 1118.48 403.62 1120.94 399.72 C 1116.51 401.15 1112.18 402.84 1107.85 404.51 C 1104.90 400.81 1102.05 397.02 1099.00 393.40 M 73.30 435.50 C 73.45 440.17 73.72 444.84 73.81 449.52 C 69.38 451.00 64.96 452.55 60.70 454.47 C 65.20 455.70 69.72 456.90 74.23 458.13 C 74.45 462.80 74.56 467.47 74.90 472.14 C 77.62 468.32 80.10 464.35 82.67 460.44 C 87.15 461.78 91.64 463.07 96.17 464.22 C 93.36 460.46 90.41 456.81 87.48 453.14 C 90.11 449.22 92.78 445.33 95.21 441.29 C 90.80 442.90 86.43 444.63 82.04 446.28 C 79.20 442.62 76.47 438.88 73.30 435.50 M 1120.93 457.80 C 1120.42 462.44 1120.11 467.09 1119.75 471.74 C 1115.36 472.77 1110.95 473.72 1106.58 474.85 C 1110.48 477.19 1114.79 478.72 1119.01 480.39 C 1118.69 485.12 1118.23 489.85 1117.95 494.60 C 1121.05 491.07 1124.06 487.46 1127.13 483.90 C 1131.44 485.74 1135.73 487.65 1140.11 489.34 C 1137.72 485.23 1135.16 481.22 1132.79 477.10 C 1135.90 473.65 1139.00 470.18 1141.86 466.51 C 1137.26 467.29 1132.80 469.19 1128.15 469.35 C 1125.47 465.68 1123.57 461.51 1120.93 457.80 M 56.92 502.47 C 57.29 507.18 59.17 511.91 58.72 516.57 C 54.98 519.04 50.72 520.61 46.96 523.05 C 51.54 523.87 56.16 524.45 60.76 525.15 C 61.43 529.75 62.16 534.34 63.09 538.90 C 65.34 534.75 67.30 530.46 69.47 526.28 C 73.99 527.08 78.53 527.79 83.07 528.41 C 79.99 524.96 76.67 521.72 73.16 518.71 C 75.11 514.38 77.34 510.18 79.31 505.86 C 75.15 507.92 71.08 510.16 66.99 512.35 C 63.65 509.04 60.38 505.66 56.92 502.47 M 1134.51 524.13 C 1133.43 528.69 1132.53 533.28 1131.71 537.89 C 1127.00 538.40 1122.29 538.85 1117.60 539.42 C 1121.64 541.82 1125.72 544.16 1129.81 546.48 C 1128.87 551.10 1127.82 555.71 1126.94 560.34 C 1130.49 557.31 1133.90 554.12 1137.29 550.90 C 1141.40 553.20 1145.43 555.68 1149.59 557.93 C 1147.75 553.57 1145.77 549.28 1143.87 544.97 C 1147.37 541.86 1150.88 538.77 1154.25 535.52 C 1149.56 535.95 1144.91 536.50 1140.24 537.01 C 1138.42 532.68 1136.57 528.35 1134.51 524.13 M 48.98 571.17 C 50.30 575.75 51.73 580.31 53.12 584.87 C 49.28 587.53 45.42 590.15 41.63 592.88 C 46.31 593.06 51.00 593.24 55.68 593.31 C 57.03 597.87 58.38 602.44 59.70 607.01 C 61.31 602.57 62.81 598.08 64.19 593.57 C 68.93 593.42 73.67 593.62 78.40 593.78 C 74.79 590.73 70.97 587.96 67.18 585.16 C 68.75 580.70 70.37 576.26 71.85 571.77 C 67.90 574.34 64.09 577.10 60.26 579.83 C 56.51 576.94 52.77 574.02 48.98 571.17 M 1139.65 591.70 C 1138.14 596.14 1136.62 600.58 1135.12 605.02 C 1130.50 605.02 1125.89 604.82 1121.28 604.81 C 1124.76 607.85 1128.52 610.55 1132.24 613.30 C 1130.76 617.76 1129.10 622.17 1127.72 626.66 C 1131.61 624.14 1135.36 621.40 1139.11 618.67 C 1142.90 621.43 1146.52 624.41 1150.37 627.09 C 1149.16 622.58 1147.73 618.13 1146.34 613.67 C 1150.19 610.96 1154.08 608.30 1157.91 605.54 C 1153.21 605.42 1148.52 605.24 1143.84 605.21 C 1142.48 600.70 1141.19 596.16 1139.65 591.70 M 62.05 647.60 C 58.06 645.22 54.11 642.77 49.94 640.73 C 51.74 645.00 53.72 649.21 55.62 653.45 C 52.15 656.64 48.59 659.73 45.17 662.98 C 49.84 662.57 54.50 662.02 59.16 661.48 C 61.08 665.72 62.89 670.02 64.83 674.26 C 66.06 669.76 66.94 665.18 67.80 660.61 C 72.37 660.08 76.97 659.68 81.54 659.03 C 77.70 656.49 73.67 654.28 69.66 652.04 C 70.57 647.42 71.64 642.84 72.48 638.22 C 68.92 641.24 65.51 644.45 62.05 647.60 M 1130.12 672.15 C 1125.44 671.40 1120.77 670.67 1116.09 670.04 C 1119.48 673.35 1122.82 676.70 1126.28 679.96 C 1124.14 684.18 1121.98 688.39 1120.04 692.70 C 1124.20 690.63 1128.29 688.41 1132.33 686.11 C 1135.81 689.35 1139.09 692.79 1142.57 696.03 C 1141.86 691.33 1141.02 686.66 1140.27 681.98 C 1144.42 679.86 1148.60 677.76 1152.60 675.35 C 1147.96 674.69 1143.32 674.05 1138.71 673.29 C 1137.99 668.70 1137.28 664.12 1136.47 659.55 C 1134.18 663.66 1132.17 667.92 1130.12 672.15 M 72.29 714.61 C 68.03 712.71 63.75 710.85 59.40 709.17 C 61.74 713.25 64.24 717.23 66.71 721.23 C 63.68 724.79 60.53 728.24 57.64 731.93 C 62.18 730.99 66.68 729.85 71.18 728.75 C 73.67 732.77 76.04 736.86 78.61 740.84 C 79.01 736.14 79.35 731.44 79.74 726.74 C 84.28 725.68 88.83 724.69 93.36 723.60 C 89.14 721.54 84.77 719.81 80.43 718.02 C 80.79 713.37 81.23 708.73 81.50 704.08 C 78.31 707.48 75.37 711.10 72.29 714.61 M 1116.83 738.04 C 1112.37 736.72 1107.91 735.40 1103.38 734.37 C 1106.14 738.08 1109.07 741.67 1112.01 745.25 C 1109.45 749.26 1106.77 753.18 1104.15 757.15 C 1108.62 755.65 1113.00 753.90 1117.40 752.19 C 1120.31 755.86 1123.14 759.61 1126.16 763.21 C 1126.02 758.49 1125.80 753.78 1125.59 749.06 C 1130.04 747.46 1134.48 745.81 1138.93 744.20 C 1134.42 742.81 1129.86 741.57 1125.29 740.42 C 1124.99 735.61 1124.83 730.80 1124.68 725.99 C 1122.07 730.01 1119.43 734.01 1116.83 738.04 M 91.01 779.81 C 86.43 778.49 81.86 777.13 77.24 775.94 C 80.21 779.65 83.20 783.35 86.17 787.07 C 83.58 791.01 80.90 794.89 78.44 798.92 C 82.88 797.33 87.28 795.61 91.70 793.98 C 94.53 797.72 97.39 801.44 100.47 804.99 C 100.28 800.29 100.03 795.59 99.78 790.90 C 104.04 789.36 108.33 787.87 112.52 786.16 C 108.24 784.41 103.73 783.37 99.30 782.12 C 99.21 777.43 99.03 772.75 98.78 768.08 C 96.05 771.89 93.54 775.85 91.01 779.81 M 1095.36 801.77 C 1091.07 799.88 1086.79 798.01 1082.44 796.31 C 1084.72 800.38 1087.17 804.36 1089.68 808.30 C 1086.64 811.94 1083.45 815.46 1080.46 819.15 C 1085.05 818.16 1089.60 816.97 1094.18 815.86 C 1096.51 819.84 1098.77 823.87 1101.49 827.62 C 1101.94 823.00 1102.27 818.37 1102.72 813.76 C 1107.30 812.76 1111.86 811.70 1116.41 810.58 C 1112.13 808.64 1107.77 806.89 1103.43 805.12 C 1103.81 800.47 1104.24 795.83 1104.50 791.18 C 1101.32 794.59 1098.35 798.19 1095.36 801.77 M 117.72 842.09 C 113.04 841.49 108.39 840.70 103.73 840.01 C 106.97 843.43 110.31 846.74 113.78 849.93 C 111.68 854.11 109.52 858.27 107.66 862.57 C 111.84 860.55 115.91 858.31 120.03 856.17 C 123.29 859.44 126.57 862.70 129.96 865.85 C 129.51 861.21 128.61 856.64 127.75 852.07 C 131.93 849.91 136.15 847.83 140.23 845.49 C 135.58 844.79 130.93 844.11 126.28 843.46 C 125.45 838.84 124.79 834.19 123.87 829.59 C 121.67 833.68 119.66 837.87 117.72 842.09 M 1066.03 862.23 C 1062.01 859.89 1058.02 857.51 1053.99 855.21 C 1055.67 859.58 1057.63 863.84 1059.59 868.10 C 1056.07 871.34 1052.48 874.49 1048.97 877.74 C 1053.58 877.36 1058.15 876.33 1062.80 876.37 C 1065.57 880.13 1066.66 884.96 1068.75 889.15 C 1069.93 884.50 1070.84 879.79 1071.85 875.11 C 1076.47 874.67 1081.09 874.22 1085.70 873.65 C 1081.73 871.11 1077.58 868.90 1073.59 866.40 C 1074.68 861.88 1075.68 857.34 1076.58 852.79 C 1072.97 855.83 1069.54 859.07 1066.03 862.23 M 151.87 900.75 C 147.15 900.51 142.42 900.40 137.70 900.21 C 141.40 903.28 145.32 906.06 149.10 909.03 C 147.48 913.36 145.92 917.72 144.52 922.13 C 148.48 919.67 152.25 916.93 156.04 914.23 C 159.77 917.09 163.47 919.99 167.30 922.73 C 166.04 918.20 164.60 913.73 163.17 909.26 C 167.01 906.60 170.94 904.04 174.58 901.11 C 169.96 900.94 165.33 900.98 160.70 901.04 C 159.25 896.47 157.95 891.86 156.53 887.29 C 154.81 891.71 153.38 896.24 151.87 900.75 M 1018.23 910.14 C 1019.51 914.68 1020.93 919.19 1022.24 923.73 C 1018.36 926.34 1014.51 928.98 1010.72 931.72 C 1015.40 932.00 1020.10 932.04 1024.80 932.01 C 1026.10 936.46 1027.35 940.92 1028.74 945.35 C 1030.55 941.08 1032.01 936.68 1033.42 932.27 C 1038.07 932.21 1042.72 932.30 1047.38 932.39 C 1043.91 929.34 1040.17 926.64 1036.43 923.96 C 1037.92 919.46 1039.57 915.02 1041.07 910.53 C 1037.07 913.12 1033.26 915.98 1029.29 918.61 C 1025.67 915.69 1022.01 912.83 1018.23 910.14 M 193.21 954.41 C 188.64 954.84 184.05 955.16 179.54 956.06 C 183.41 958.47 187.42 960.66 191.39 962.91 C 190.50 967.55 189.46 972.16 188.55 976.80 C 192.10 973.71 195.55 970.51 199.05 967.37 C 203.10 969.71 207.10 972.15 211.22 974.36 C 209.48 970.06 207.51 965.86 205.50 961.68 C 208.92 958.33 212.54 955.19 216.14 952.05 C 211.39 952.47 206.64 953.00 201.90 953.53 C 199.97 949.27 198.16 944.96 196.22 940.71 C 195.00 945.22 194.10 949.82 193.21 954.41 M 975.98 960.12 C 976.68 964.78 977.47 969.42 978.31 974.07 C 974.10 976.22 969.90 978.39 965.72 980.60 C 970.35 981.42 975.02 982.04 979.70 982.61 C 980.46 987.19 981.12 991.79 982.14 996.33 C 984.31 992.26 986.31 988.11 988.32 983.96 C 992.99 984.52 997.64 985.29 1002.31 985.94 C 999.03 982.54 995.64 979.25 992.24 975.98 C 994.40 971.82 996.60 967.70 998.54 963.44 C 994.31 965.46 990.21 967.72 986.09 969.95 C 982.79 966.60 979.39 963.35 975.98 960.12 M 242.08 988.64 C 241.60 993.29 241.29 997.97 240.89 1002.63 C 236.24 1003.62 231.61 1004.67 226.97 1005.67 C 231.35 1007.58 235.76 1009.44 240.21 1011.19 C 239.88 1015.90 239.45 1020.61 239.12 1025.34 C 242.24 1021.87 245.26 1018.32 248.23 1014.72 C 252.63 1016.44 256.93 1018.40 261.33 1020.12 C 259.03 1016.01 256.48 1012.06 253.99 1008.08 C 257.06 1004.51 260.21 1001.02 263.18 997.39 C 258.53 998.40 253.91 999.59 249.23 1000.47 C 247.00 996.44 244.66 992.46 242.08 988.64 M 927.83 1004.63 C 927.91 1009.31 928.17 1014.00 928.24 1018.69 C 923.82 1020.19 919.42 1021.74 915.13 1023.59 C 919.63 1024.88 924.16 1026.05 928.69 1027.28 C 928.85 1031.95 928.98 1036.62 929.21 1041.30 C 931.99 1037.51 934.50 1033.55 937.04 1029.60 C 941.55 1030.81 946.04 1032.13 950.59 1033.23 C 947.83 1029.47 944.85 1025.89 941.97 1022.23 C 944.61 1018.36 947.25 1014.50 949.69 1010.51 C 945.18 1011.75 940.97 1014.52 936.36 1014.99 C 933.21 1011.79 930.90 1007.89 927.83 1004.63 M 293.77 1030.46 C 293.77 1035.06 294.05 1039.65 294.36 1044.25 C 289.91 1045.95 285.41 1047.55 280.98 1049.31 C 285.56 1050.55 290.15 1051.79 294.72 1053.09 C 294.95 1057.81 295.12 1062.53 295.33 1067.26 C 298.25 1063.52 300.13 1058.86 303.61 1055.65 C 308.09 1056.56 312.38 1058.21 316.86 1059.17 C 314.07 1055.41 310.66 1052.10 308.22 1048.09 C 310.37 1044.01 313.37 1040.45 315.70 1036.47 C 311.22 1037.99 306.83 1039.75 302.34 1041.25 C 299.58 1037.57 296.79 1033.92 293.77 1030.46 M 874.37 1042.38 C 873.82 1046.93 873.90 1051.56 873.05 1056.07 C 868.69 1058.05 863.74 1058.39 859.13 1059.64 C 863.55 1061.52 867.99 1063.35 872.46 1065.12 C 872.02 1069.80 871.55 1074.50 871.18 1079.20 C 874.57 1075.88 877.06 1071.67 880.80 1068.74 C 885.10 1070.12 889.12 1072.25 893.34 1073.86 C 891.20 1069.71 888.68 1065.79 886.24 1061.83 C 889.34 1058.27 892.53 1054.78 895.45 1051.07 C 890.87 1052.11 886.32 1053.30 881.76 1054.40 C 879.29 1050.39 876.93 1046.32 874.37 1042.38 M 350.03 1064.93 C 350.79 1069.67 351.66 1074.38 352.49 1079.11 C 348.24 1081.25 344.03 1083.46 339.81 1085.66 C 344.57 1086.34 349.34 1087.01 354.10 1087.78 C 354.79 1092.32 355.52 1096.86 356.36 1101.38 C 358.67 1097.39 360.70 1093.25 362.56 1089.03 C 367.22 1089.62 371.85 1090.43 376.51 1091.03 C 373.35 1087.57 369.88 1084.42 366.52 1081.16 C 368.64 1077.01 370.77 1072.86 372.69 1068.62 C 368.48 1070.69 364.35 1072.92 360.18 1075.06 C 356.80 1071.67 353.44 1068.27 350.03 1064.93 M 813.75 1087.12 C 809.10 1087.61 804.44 1088.05 799.79 1088.57 C 803.64 1091.15 807.73 1093.35 811.83 1095.52 C 810.95 1100.17 809.86 1104.78 808.90 1109.41 C 812.51 1106.38 815.98 1103.19 819.42 1099.97 C 823.53 1102.29 827.58 1104.73 831.74 1106.99 C 829.92 1102.64 827.94 1098.38 825.97 1094.12 C 829.34 1091.06 832.80 1088.10 836.15 1085.03 C 831.51 1084.95 826.91 1085.65 822.30 1086.07 C 820.57 1081.81 818.73 1077.59 816.74 1073.45 C 815.58 1077.97 814.65 1082.54 813.75 1087.12 M 410.44 1092.85 C 411.74 1097.36 413.18 1101.82 414.60 1106.30 C 410.66 1108.99 406.67 1111.61 402.86 1114.48 C 407.62 1114.50 412.38 1114.46 417.14 1114.62 C 418.51 1119.17 419.85 1123.73 421.37 1128.25 C 422.87 1123.77 424.38 1119.30 425.90 1114.83 C 430.60 1114.97 435.30 1115.04 440.00 1115.16 C 436.38 1112.19 432.61 1109.42 428.82 1106.69 C 430.27 1102.24 431.92 1097.87 433.31 1093.40 C 429.40 1095.90 425.64 1098.61 421.89 1101.31 C 418.02 1098.56 414.32 1095.58 410.44 1092.85 M 750.94 1110.01 C 746.26 1110.04 741.58 1109.89 736.90 1109.80 C 740.43 1112.85 744.23 1115.58 748.02 1118.30 C 746.43 1122.71 744.80 1127.11 743.35 1131.58 C 747.31 1129.04 751.13 1126.28 754.98 1123.56 C 758.71 1126.38 762.40 1129.26 766.18 1132.03 C 765.00 1127.48 763.55 1123.01 762.21 1118.52 C 766.12 1115.86 770.01 1113.17 773.93 1110.51 C 769.19 1110.29 764.45 1110.19 759.72 1110.27 C 758.29 1105.76 756.98 1101.21 755.61 1096.68 C 753.94 1101.08 752.42 1105.54 750.94 1110.01 M 486.09 1119.71 C 482.04 1117.32 478.01 1114.91 473.85 1112.72 C 475.63 1117.01 477.59 1121.22 479.61 1125.41 C 476.09 1128.67 472.48 1131.83 468.86 1134.98 C 473.63 1134.51 478.40 1134.00 483.17 1133.47 C 485.05 1137.70 486.86 1141.97 488.98 1146.10 C 490.09 1141.58 490.93 1137.00 492.03 1132.48 C 496.63 1132.09 501.24 1131.69 505.81 1131.05 C 501.85 1128.57 497.76 1126.32 493.70 1124.04 C 494.71 1119.55 495.70 1115.06 496.43 1110.53 C 492.86 1113.45 489.49 1116.59 486.09 1119.71 M 691.88 1112.65 C 689.70 1116.69 687.71 1120.84 685.70 1124.98 C 681.01 1124.33 676.33 1123.57 671.64 1122.96 C 674.89 1126.35 678.38 1129.51 681.73 1132.81 C 679.64 1136.96 677.50 1141.10 675.60 1145.35 C 679.79 1143.30 683.89 1141.06 688.04 1138.93 C 691.33 1142.23 694.70 1145.43 698.14 1148.59 C 697.43 1143.99 696.61 1139.42 695.80 1134.85 C 699.98 1132.62 704.25 1130.56 708.39 1128.26 C 703.70 1127.50 699.00 1126.90 694.31 1126.22 C 693.60 1121.67 692.93 1117.12 691.88 1112.65 M 552.18 1129.84 C 547.87 1127.99 543.57 1126.13 539.21 1124.43 C 541.48 1128.49 543.97 1132.42 546.49 1136.33 C 543.46 1139.99 540.26 1143.51 537.12 1147.09 C 541.78 1146.14 546.41 1145.01 551.03 1143.88 C 553.49 1147.90 555.92 1151.94 558.44 1155.93 C 558.87 1151.28 559.23 1146.63 559.52 1141.98 C 564.10 1140.78 568.73 1139.80 573.33 1138.71 C 569.07 1136.68 564.67 1134.98 560.30 1133.22 C 560.70 1128.56 561.13 1123.90 561.46 1119.24 C 558.26 1122.67 555.26 1126.29 552.18 1129.84 M 619.11 1131.62 C 614.58 1130.34 610.07 1129.00 605.50 1127.91 C 608.30 1131.67 611.33 1135.25 614.24 1138.94 C 611.60 1142.77 608.93 1146.59 606.51 1150.57 C 610.96 1149.02 615.36 1147.30 619.81 1145.72 C 622.57 1149.37 625.34 1153.01 628.45 1156.38 C 628.36 1151.74 628.08 1147.11 628.03 1142.47 C 632.49 1141.01 636.92 1139.43 641.25 1137.59 C 636.65 1136.39 632.05 1135.19 627.49 1133.86 C 627.36 1129.15 627.21 1124.46 626.87 1119.78 C 624.25 1123.70 621.69 1127.67 619.11 1131.62 Z"></path><path fill="#16c1f3" opacity="1.00" d=" M 571.01 41.76 C 573.99 45.42 576.86 49.16 579.85 52.81 C 584.25 51.08 588.65 49.38 593.13 47.86 C 590.55 51.83 587.81 55.70 585.26 59.69 C 588.25 63.28 591.20 66.91 594.01 70.66 C 589.44 69.44 584.90 68.13 580.34 66.91 C 577.85 70.78 575.35 74.65 572.57 78.32 C 572.26 73.71 572.13 69.08 571.88 64.47 C 567.37 63.38 562.88 62.23 558.52 60.67 C 562.82 58.99 567.19 57.46 571.54 55.89 C 571.34 51.18 571.08 46.48 571.01 41.76 Z"></path><path fill="#16c1f3" opacity="1.00" d=" M 641.08 42.65 C 643.66 46.60 645.97 50.72 648.56 54.67 C 653.07 53.47 657.60 52.37 662.17 51.41 C 659.24 55.05 656.10 58.51 652.98 61.98 C 655.43 66.03 657.98 70.02 660.35 74.12 C 655.89 72.62 651.79 69.95 647.17 69.03 C 643.80 72.19 641.18 76.04 637.98 79.36 C 638.36 74.63 638.82 69.91 639.08 65.17 C 634.82 63.56 630.54 61.96 626.54 59.76 C 630.94 58.58 635.41 57.63 639.88 56.71 C 640.25 52.02 640.58 47.33 641.08 42.65 Z"></path><path fill="#16c1f3" opacity="1.00" d=" M 501.27 49.87 C 504.91 52.82 507.77 56.80 511.77 59.24 C 516.01 57.53 519.85 54.97 524.00 53.03 C 522.04 57.33 519.85 61.50 517.73 65.71 C 521.06 68.92 524.49 72.04 527.65 75.42 C 523.04 74.91 518.46 74.21 513.88 73.49 C 511.76 77.75 509.65 82.01 507.45 86.23 C 506.68 81.56 505.91 76.88 505.11 72.21 C 500.58 71.61 496.05 71.04 491.55 70.28 C 495.20 67.67 499.49 66.18 503.21 63.70 C 503.54 59.11 501.74 54.48 501.27 49.87 Z"></path><path fill="#16c1f3" opacity="1.00" d=" M 710.44 52.03 C 712.47 56.32 714.37 60.66 716.25 65.01 C 720.93 64.52 725.60 63.97 730.28 63.56 C 726.93 66.82 723.38 69.87 719.88 72.97 C 721.84 77.21 723.83 81.44 725.60 85.77 C 721.45 83.56 717.43 81.11 713.33 78.83 C 709.86 82.00 706.38 85.16 702.87 88.27 C 703.71 83.67 704.74 79.10 705.84 74.55 C 701.74 72.17 697.58 69.91 693.58 67.38 C 698.26 66.86 702.95 66.42 707.64 65.89 C 708.51 61.25 709.47 56.64 710.44 52.03 Z"></path><path fill="#16c1f3" opacity="1.00" d=" M 433.23 66.51 C 437.05 69.18 440.73 72.03 444.39 74.91 C 448.37 72.24 452.24 69.44 456.19 66.74 C 454.71 71.24 453.08 75.70 451.46 80.15 C 455.31 83.02 459.19 85.86 463.00 88.78 C 458.22 88.57 453.44 88.47 448.67 88.43 C 447.08 92.77 445.68 97.18 443.83 101.42 C 442.39 97.06 441.16 92.65 439.82 88.26 C 435.11 88.31 430.42 88.19 425.73 87.91 C 429.55 85.21 433.41 82.58 437.28 79.96 C 435.93 75.47 434.50 71.01 433.23 66.51 Z"></path><path fill="#16c1f3" opacity="1.00" d=" M 773.58 83.69 C 774.99 79.28 776.43 74.87 778.28 70.62 C 779.69 74.99 780.97 79.41 782.29 83.81 C 787.01 84.04 791.74 84.00 796.48 84.06 C 792.73 86.93 788.78 89.51 784.89 92.17 C 786.32 96.69 787.75 101.21 789.02 105.77 C 785.24 102.92 781.49 100.02 777.72 97.16 C 773.85 99.87 769.99 102.60 766.05 105.19 C 767.54 100.74 769.13 96.32 770.70 91.88 C 766.91 89.07 763.09 86.29 759.44 83.30 C 764.15 83.44 768.87 83.51 773.58 83.69 Z"></path><path fill="#16c1f3" opacity="1.00" d=" M 379.99 98.54 C 383.45 95.34 386.93 92.15 390.54 89.12 C 389.61 93.73 388.54 98.31 387.61 102.92 C 391.74 105.16 395.84 107.46 399.88 109.86 C 395.14 110.41 390.39 110.87 385.66 111.46 C 384.80 116.10 383.83 120.71 382.74 125.30 C 380.81 120.99 378.95 116.66 377.05 112.33 C 372.32 112.86 367.59 113.42 362.85 113.92 C 366.35 110.65 369.98 107.54 373.49 104.28 C 371.51 100.10 369.58 95.89 367.81 91.62 C 371.95 93.77 375.96 96.17 379.99 98.54 Z"></path><path fill="#16c1f3" opacity="1.00" d=" M 836.85 109.46 C 838.81 105.32 840.76 101.15 843.07 97.18 C 844.10 101.61 844.44 106.18 845.58 110.59 C 850.05 111.75 854.69 111.98 859.23 112.82 C 855.30 115.27 851.12 117.26 847.00 119.33 C 847.81 123.98 848.68 128.62 849.30 133.31 C 845.86 130.08 842.59 126.68 839.21 123.40 C 835.07 125.63 830.91 127.81 826.75 129.98 C 828.74 125.69 830.90 121.49 832.97 117.24 C 829.52 114.09 826.12 110.89 822.97 107.44 C 827.60 108.08 832.22 108.81 836.85 109.46 Z"></path><path fill="#ffffff" opacity="1.00" d=" M 589.22 106.35 C 674.48 104.42 760.18 124.97 835.04 165.88 C 892.61 197.16 943.78 240.07 984.72 291.20 C 1016.75 331.19 1042.57 376.18 1060.74 424.09 C 1094.44 512.40 1101.62 610.47 1081.84 702.85 C 1065.55 779.52 1030.39 852.04 980.50 912.48 C 932.27 971.08 870.42 1018.45 801.11 1049.41 C 724.97 1083.65 640.02 1097.65 556.90 1090.41 C 510.71 1086.46 465.11 1075.94 421.88 1059.22 C 372.10 1039.98 325.53 1012.52 284.53 978.37 C 229.85 932.94 185.14 875.56 154.56 811.39 C 117.54 734.19 101.63 647.20 108.13 561.88 C 111.86 511.86 123.26 462.41 141.95 415.86 C 167.89 350.97 207.97 291.82 258.40 243.47 C 307.25 196.55 365.83 159.76 429.44 136.43 C 480.53 117.58 534.79 107.49 589.22 106.35 M 576.61 124.84 C 539.90 126.61 503.39 132.61 468.08 142.83 C 405.71 160.79 347.18 191.86 297.23 233.30 C 243.73 277.55 200.00 333.58 170.29 396.35 C 148.25 442.82 133.86 492.91 127.97 544.01 C 118.43 625.40 130.21 709.25 162.43 784.63 C 190.17 850.01 232.91 908.91 286.23 955.80 C 323.93 988.99 366.87 1016.23 413.05 1036.00 C 455.90 1054.41 501.51 1066.36 547.87 1071.39 C 628.54 1080.27 711.48 1068.21 786.08 1036.15 C 854.65 1006.85 916.07 961.09 963.89 903.90 C 1013.30 845.07 1048.19 774.08 1064.19 698.91 C 1082.51 613.47 1076.84 522.97 1047.49 440.63 C 1030.12 391.61 1004.51 345.56 972.23 304.81 C 930.76 252.43 878.23 208.85 818.99 177.95 C 744.85 139.03 660.20 120.66 576.61 124.84 Z"></path><path fill="#16c1f3" opacity="1.00" d=" M 318.93 130.01 C 321.99 126.48 324.94 122.86 328.21 119.52 C 327.93 124.11 327.48 128.68 326.93 133.24 C 331.33 135.15 335.78 136.91 340.23 138.71 C 335.61 139.94 330.94 140.96 326.29 142.06 C 325.90 146.74 325.54 151.43 325.05 156.11 C 322.54 152.14 320.19 148.08 317.77 144.07 C 313.21 145.21 308.66 146.37 304.07 147.31 C 306.99 143.68 310.10 140.22 313.21 136.74 C 310.85 132.68 308.32 128.71 305.95 124.65 C 310.33 126.30 314.63 128.16 318.93 130.01 Z"></path><path fill="#16c1f3" opacity="1.00" d=" M 576.61 124.84 C 660.20 120.66 744.85 139.03 818.99 177.95 C 878.23 208.85 930.76 252.43 972.23 304.81 C 1004.51 345.56 1030.12 391.61 1047.49 440.63 C 1076.84 522.97 1082.51 613.47 1064.19 698.91 C 1048.19 774.08 1013.30 845.07 963.89 903.90 C 916.07 961.09 854.65 1006.85 786.08 1036.15 C 711.48 1068.21 628.54 1080.27 547.87 1071.39 C 501.51 1066.36 455.90 1054.41 413.05 1036.00 C 366.87 1016.23 323.93 988.99 286.23 955.80 C 232.91 908.91 190.17 850.01 162.43 784.63 C 130.21 709.25 118.43 625.40 127.97 544.01 C 133.86 492.91 148.25 442.82 170.29 396.35 C 200.00 333.58 243.73 277.55 297.23 233.30 C 347.18 191.86 405.71 160.79 468.08 142.83 C 503.39 132.61 539.90 126.61 576.61 124.84 M 570.53 134.80 C 481.86 140.13 395.09 171.90 323.77 224.82 C 277.25 259.23 237.11 302.28 206.20 351.21 C 177.17 397.03 156.27 447.97 144.84 501.00 C 126.19 587.20 132.59 678.72 163.54 761.34 C 188.66 828.88 229.86 890.29 282.57 939.40 C 322.58 976.80 369.23 1007.07 419.71 1028.32 C 507.49 1065.52 606.86 1074.32 699.90 1053.72 C 773.47 1037.60 842.84 1003.00 900.23 954.24 C 958.41 904.98 1004.36 841.33 1032.43 770.43 C 1065.47 687.70 1073.60 595.36 1056.09 508.06 C 1046.66 460.49 1029.54 414.49 1005.81 372.21 C 979.61 325.47 945.22 283.36 904.81 248.18 C 849.56 200.02 782.81 165.08 711.63 147.52 C 665.62 136.03 617.84 131.92 570.53 134.80 Z"></path><path fill="#16c1f3" opacity="1.00" d=" M 896.00 142.85 C 899.30 139.57 901.11 135.06 904.06 131.46 C 904.38 136.08 904.54 140.71 904.71 145.34 C 909.26 146.67 913.86 147.84 918.36 149.35 C 914.00 150.96 909.64 152.52 905.26 154.04 C 905.36 158.77 905.64 163.49 905.80 168.22 C 902.77 164.62 899.90 160.89 897.03 157.18 C 892.57 158.79 888.16 160.50 883.70 162.10 C 886.19 158.08 888.93 154.22 891.52 150.26 C 888.49 146.68 885.52 143.04 882.75 139.27 C 887.21 140.31 891.49 142.03 896.00 142.85 Z"></path><path fill="#ffffff" opacity="1.00" d=" M 570.53 134.80 C 617.84 131.92 665.62 136.03 711.63 147.52 C 782.81 165.08 849.56 200.02 904.81 248.18 C 945.22 283.36 979.61 325.47 1005.81 372.21 C 1029.54 414.49 1046.66 460.49 1056.09 508.06 C 1073.60 595.36 1065.47 687.70 1032.43 770.43 C 1004.36 841.33 958.41 904.98 900.23 954.24 C 842.84 1003.00 773.47 1037.60 699.90 1053.72 C 606.86 1074.32 507.49 1065.52 419.71 1028.32 C 369.23 1007.07 322.58 976.80 282.57 939.40 C 229.86 890.29 188.66 828.88 163.54 761.34 C 132.59 678.72 126.19 587.20 144.84 501.00 C 156.27 447.97 177.17 397.03 206.20 351.21 C 237.11 302.28 277.25 259.23 323.77 224.82 C 395.09 171.90 481.86 140.13 570.53 134.80 M 718.57 248.84 C 717.82 267.48 716.92 286.11 716.18 304.75 C 698.16 309.63 680.13 314.44 662.11 319.35 C 679.55 325.97 697.12 332.21 714.58 338.77 C 713.66 357.30 712.48 375.81 711.62 394.34 C 723.45 379.89 734.79 365.05 746.57 350.56 C 763.89 357.19 781.18 363.88 798.57 370.32 C 788.49 354.72 778.00 339.39 767.76 323.90 C 779.45 309.36 791.29 294.94 802.94 280.36 C 784.93 285.33 766.99 290.55 748.99 295.56 C 738.83 280.00 728.82 264.34 718.57 248.84 M 652.30 337.37 C 639.50 345.44 627.05 354.08 614.32 362.26 C 612.36 363.70 609.24 365.05 609.71 368.00 C 609.72 370.96 613.61 372.91 615.99 371.07 C 628.96 362.77 641.67 354.05 654.62 345.71 C 656.54 344.51 659.03 342.60 658.14 339.99 C 657.69 337.37 654.51 336.19 652.30 337.37 M 679.49 355.28 C 656.12 370.65 632.77 386.05 609.48 401.53 C 605.42 403.40 607.56 410.23 612.02 409.27 C 617.63 406.76 622.33 402.61 627.59 399.46 C 646.05 387.28 664.51 375.09 682.97 362.89 C 684.61 361.76 686.67 360.34 686.26 358.02 C 686.10 354.75 681.90 353.24 679.49 355.28 M 256.01 384.01 C 229.65 397.51 208.50 420.57 196.79 447.72 C 177.76 490.59 177.78 542.75 201.09 583.98 C 216.60 611.99 243.67 633.25 274.52 641.76 C 298.88 648.43 325.07 648.42 349.40 641.61 C 363.71 637.52 377.80 631.97 389.98 623.29 C 404.10 613.31 416.08 600.50 426.10 586.48 C 420.31 580.60 413.93 575.31 407.94 569.63 C 397.80 583.22 384.91 594.81 369.99 602.92 C 351.89 612.97 330.65 618.17 309.99 615.16 C 296.42 613.26 283.54 606.90 273.83 597.23 C 258.86 582.92 250.62 563.04 246.31 543.12 C 241.65 520.40 241.12 496.72 245.43 473.91 C 249.39 453.27 257.49 432.63 272.69 417.65 C 282.57 407.46 295.93 400.72 310.06 399.11 C 328.05 396.79 347.93 400.73 361.31 413.67 C 374.53 426.16 380.39 444.25 383.32 461.75 C 391.54 461.76 399.77 461.74 407.99 461.76 C 408.01 432.42 408.00 403.09 408.00 373.75 C 398.24 373.75 388.47 373.75 378.71 373.75 C 379.27 379.03 379.72 384.31 380.26 389.59 C 363.08 379.64 343.71 373.46 323.96 371.51 C 300.78 370.03 276.90 373.53 256.01 384.01 M 685.39 387.45 C 673.59 394.83 662.17 402.83 650.45 410.35 C 648.13 411.97 645.52 413.27 643.55 415.33 C 641.60 417.58 643.27 421.45 646.15 421.76 C 647.98 422.06 649.55 420.90 651.02 420.02 C 663.20 411.85 675.47 403.83 687.69 395.75 C 689.29 394.55 691.66 393.39 691.29 391.00 C 691.49 388.08 687.88 385.89 685.39 387.45 M 748.92 454.12 C 733.98 457.54 719.60 466.95 713.12 481.22 C 706.51 494.85 706.97 511.26 712.60 525.13 C 718.06 538.54 730.18 547.54 742.14 554.87 C 757.46 564.27 774.79 569.51 790.98 577.10 C 797.74 580.44 804.37 585.02 808.19 591.69 C 811.69 598.27 811.10 606.73 806.81 612.81 C 801.91 619.79 793.82 624.10 785.47 625.25 C 771.59 627.16 756.68 623.33 746.25 613.75 C 736.92 605.50 732.30 593.38 730.09 581.41 C 724.25 581.00 718.38 581.38 712.53 581.23 C 712.46 601.82 712.52 622.41 712.50 643.00 C 719.36 643.00 726.21 643.00 733.07 643.00 C 732.89 639.34 732.60 635.70 732.34 632.06 C 745.89 639.79 761.29 644.42 776.91 644.95 C 792.46 645.07 808.50 642.19 821.86 633.88 C 833.04 627.10 841.75 615.95 844.58 603.08 C 847.87 587.89 844.82 570.64 833.79 559.18 C 825.30 550.61 814.82 544.31 804.21 538.73 C 787.04 529.87 767.73 524.86 752.34 512.76 C 744.91 507.07 741.04 496.89 743.77 487.81 C 746.83 478.82 756.01 473.43 764.92 471.72 C 776.66 469.98 789.45 472.32 798.78 479.97 C 809.59 488.47 814.65 502.08 816.84 515.25 C 822.72 515.25 828.61 515.25 834.50 515.25 C 834.50 494.75 834.50 474.25 834.50 453.75 C 827.54 453.74 820.59 453.76 813.64 453.74 C 813.93 457.26 814.28 460.78 814.60 464.31 C 795.38 451.95 770.96 449.48 748.92 454.12 M 429.49 456.27 C 429.50 463.07 429.51 469.87 429.49 476.68 C 436.09 476.42 442.69 476.10 449.31 475.95 C 448.07 489.95 448.26 504.01 448.25 518.04 C 448.24 546.71 448.27 575.39 448.24 604.06 C 448.00 609.38 447.37 615.30 443.51 619.34 C 439.80 622.90 434.24 622.62 429.48 623.13 C 429.52 629.00 429.49 634.88 429.51 640.76 C 455.75 640.75 481.99 640.73 508.22 640.77 C 508.27 633.92 508.26 627.08 508.23 620.24 C 500.78 620.16 493.33 620.32 485.90 620.89 C 487.48 603.64 486.46 586.30 486.75 569.00 C 491.18 569.07 495.62 568.81 500.04 569.11 C 503.47 571.94 505.72 575.94 508.31 579.51 C 517.57 594.01 526.43 608.76 535.53 623.36 C 539.69 629.71 544.04 636.18 550.21 640.78 C 564.80 640.71 579.40 640.76 593.99 640.76 C 594.00 634.89 594.00 629.03 594.00 623.17 C 588.97 622.80 583.86 621.38 579.98 618.04 C 575.39 613.98 571.69 609.04 568.25 604.01 C 562.95 595.98 557.48 588.07 552.20 580.02 C 547.69 573.05 541.65 566.88 534.10 563.26 C 547.50 559.34 560.69 552.67 569.47 541.50 C 577.06 532.16 580.87 520.02 580.27 508.03 C 580.21 493.52 574.76 478.16 562.51 469.56 C 546.19 457.99 525.44 455.81 506.00 455.54 C 493.68 456.00 481.35 455.59 469.03 455.80 C 455.86 456.39 442.66 455.56 429.49 456.27 M 614.00 456.25 C 613.99 463.05 614.00 469.86 614.00 476.67 C 620.53 476.42 627.07 476.09 633.61 475.95 C 632.16 490.28 632.95 504.68 632.75 519.05 C 632.73 545.72 632.79 572.38 632.72 599.05 C 632.39 605.67 632.80 613.08 628.48 618.60 C 624.99 622.80 618.96 622.63 614.00 623.11 C 614.00 628.99 613.99 634.87 614.00 640.75 C 639.33 640.75 664.66 640.74 689.99 640.75 C 690.00 633.92 690.00 627.08 690.00 620.25 C 683.37 620.11 676.76 620.43 670.15 620.86 C 671.37 608.28 671.25 595.64 671.25 583.02 C 671.25 552.99 671.24 522.95 671.26 492.92 C 671.45 487.21 672.22 480.71 676.85 476.77 C 680.62 474.01 685.56 474.18 690.00 473.66 C 690.00 467.85 690.00 462.05 690.00 456.25 C 664.66 456.25 639.33 456.25 614.00 456.25 M 853.77 456.25 C 853.12 476.16 852.86 496.08 852.35 516.00 C 858.21 516.00 864.07 516.00 869.94 516.00 C 870.10 503.20 872.26 488.44 883.24 480.24 C 892.12 473.30 903.91 474.18 914.50 474.25 C 914.48 515.85 914.54 557.45 914.47 599.04 C 914.13 605.60 914.57 612.92 910.35 618.42 C 906.94 622.84 900.74 622.60 895.74 623.13 C 895.76 629.01 895.72 634.89 895.78 640.77 C 921.51 640.73 947.25 640.75 972.99 640.76 C 973.00 633.92 973.00 627.08 972.99 620.25 C 965.97 620.16 958.95 620.32 951.96 620.94 C 953.35 606.33 952.91 591.64 953.00 576.99 C 953.00 542.66 953.00 508.33 953.00 474.00 C 959.38 474.16 965.81 473.55 972.15 474.51 C 979.87 475.67 986.88 480.37 991.05 486.97 C 996.47 495.57 997.73 506.03 997.80 516.00 C 1003.71 516.00 1009.62 516.00 1015.53 516.00 C 1014.89 496.09 1014.32 476.18 1013.97 456.27 C 960.57 456.22 907.17 456.27 853.77 456.25 M 590.13 683.25 C 581.93 685.12 574.99 691.74 573.01 699.95 C 570.73 708.95 572.03 719.42 578.41 726.51 C 587.09 736.15 603.65 736.92 613.29 728.30 C 625.26 718.02 624.48 696.62 611.78 687.26 C 605.68 682.65 597.47 681.49 590.13 683.25 M 530.00 683.50 C 530.00 684.40 530.00 686.19 530.00 687.09 C 531.92 687.30 533.94 687.25 535.76 688.02 C 536.32 700.65 535.85 713.34 536.00 726.00 C 536.60 729.31 532.63 729.06 530.46 729.41 C 530.47 730.52 530.49 731.63 530.52 732.75 C 537.76 732.75 545.00 732.74 552.24 732.76 C 552.24 731.90 552.26 730.19 552.27 729.34 C 550.14 728.90 547.50 729.59 545.89 727.85 C 545.52 722.08 545.86 716.28 545.75 710.51 C 549.17 710.53 552.60 710.32 556.01 710.65 C 557.21 712.51 557.02 714.87 557.48 716.97 C 558.89 716.98 560.32 716.99 561.75 717.02 C 561.74 711.25 561.75 705.49 561.74 699.74 C 560.32 699.73 558.91 699.74 557.50 699.76 C 557.15 701.90 556.78 704.05 556.33 706.19 C 552.80 706.26 549.28 706.25 545.75 706.25 C 545.75 700.08 545.75 693.92 545.75 687.75 C 550.50 687.84 555.27 687.53 560.01 687.88 C 561.86 690.00 561.38 693.35 562.08 696.00 C 563.79 695.99 565.52 695.99 567.25 696.00 C 567.25 691.83 567.25 687.66 567.25 683.50 C 554.83 683.50 542.42 683.50 530.00 683.50 M 626.75 683.50 C 626.75 684.39 626.75 686.15 626.76 687.03 C 628.53 687.30 630.42 687.32 632.08 688.14 C 632.51 699.74 632.09 711.38 632.28 723.00 C 632.15 724.84 632.57 726.85 631.78 728.60 C 630.15 729.10 628.45 729.25 626.78 729.48 C 626.77 730.36 626.75 732.12 626.74 733.00 C 633.74 732.99 640.75 733.01 647.76 732.99 C 647.75 731.80 647.74 730.62 647.75 729.46 C 645.88 729.01 643.41 729.65 642.11 727.94 C 641.82 722.33 642.04 716.69 642.06 711.08 C 645.18 711.35 648.86 711.36 651.10 713.94 C 655.24 718.95 654.88 726.55 660.04 730.88 C 664.36 734.50 670.37 733.50 675.53 733.01 C 675.51 731.89 675.49 730.78 675.49 729.68 C 672.61 729.27 669.07 729.45 667.21 726.80 C 664.40 722.52 664.36 716.95 661.19 712.85 C 659.50 710.59 656.75 709.69 654.26 708.66 C 657.27 707.87 660.45 707.00 662.80 704.83 C 668.19 700.17 667.80 690.17 661.60 686.37 C 657.87 683.99 653.31 683.53 648.99 683.49 C 641.58 683.50 634.16 683.50 626.75 683.50 M 381.33 701.29 C 376.96 703.39 379.03 711.00 384.03 710.21 C 425.36 710.32 466.69 710.18 508.02 710.28 C 510.21 710.30 512.87 710.26 514.16 708.14 C 516.30 705.16 513.79 700.27 510.00 700.78 C 468.67 700.68 427.33 700.82 386.00 700.72 C 384.44 700.81 382.77 700.58 381.33 701.29 M 687.31 701.45 C 683.46 703.71 685.29 710.64 689.97 710.19 C 730.99 710.34 772.02 710.17 813.05 710.28 C 815.25 710.29 817.95 710.35 819.20 708.13 C 821.46 705.10 818.85 700.24 815.00 700.78 C 774.01 700.69 733.03 700.81 692.04 700.72 C 690.46 700.83 688.71 700.58 687.31 701.45 M 271.03 770.87 C 261.05 774.48 252.38 782.16 248.41 792.10 C 244.61 801.57 244.44 812.26 246.82 822.10 C 250.20 835.60 261.34 846.81 274.86 850.16 C 288.16 853.60 302.17 851.11 315.00 846.92 C 315.00 837.56 315.00 828.20 315.00 818.84 C 315.63 818.24 316.27 817.65 316.91 817.06 C 319.26 816.88 321.60 816.70 323.95 816.52 C 323.98 814.42 324.00 812.33 324.02 810.25 C 312.18 810.25 300.34 810.25 288.50 810.25 C 288.50 812.31 288.50 814.39 288.49 816.46 C 292.10 816.97 296.18 816.16 299.31 818.42 C 299.18 826.64 299.28 834.86 299.25 843.08 C 291.88 843.76 284.00 843.53 277.46 839.68 C 269.38 835.10 264.76 826.12 263.60 817.14 C 262.14 806.51 263.18 794.75 269.81 785.92 C 276.39 777.03 288.79 773.94 299.19 776.74 C 301.32 777.16 303.50 778.61 303.81 780.93 C 304.68 784.84 305.23 788.82 306.01 792.75 C 309.00 792.74 312.00 792.74 314.99 792.75 C 315.00 785.81 315.00 778.86 315.00 771.92 C 300.83 767.80 285.23 765.96 271.03 770.87 M 367.52 768.69 C 355.05 771.57 344.27 781.06 340.22 793.26 C 336.98 803.22 336.94 814.17 339.74 824.25 C 343.17 836.38 352.89 846.63 365.05 850.22 C 374.13 852.88 384.12 853.13 393.09 849.89 C 404.06 846.03 413.08 837.04 416.92 826.06 C 420.26 816.47 420.37 805.80 417.57 796.07 C 414.58 785.61 407.09 776.54 397.36 771.67 C 388.21 767.07 377.41 766.49 367.52 768.69 M 809.45 768.64 C 795.63 771.71 784.03 783.00 780.90 796.85 C 777.79 810.80 779.40 826.82 788.80 838.14 C 798.93 850.85 817.13 854.86 832.38 850.69 C 845.06 847.16 855.56 836.84 859.27 824.21 C 862.53 813.04 861.93 800.62 857.01 790.03 C 852.20 779.87 842.91 771.85 832.02 768.95 C 824.66 767.03 816.85 767.00 809.45 768.64 M 423.52 769.24 C 423.50 771.29 423.50 773.36 423.49 775.43 C 426.15 775.92 428.81 776.41 431.46 776.96 C 440.42 801.44 449.66 825.82 458.73 850.26 C 462.88 850.24 467.03 850.24 471.18 850.25 C 480.15 825.87 489.03 801.45 497.97 777.06 C 500.56 776.49 503.15 775.94 505.76 775.41 C 505.74 773.34 505.74 771.29 505.75 769.25 C 496.91 769.25 488.08 769.25 479.25 769.25 C 479.25 771.29 479.24 773.34 479.24 775.40 C 481.78 775.62 484.36 775.69 486.85 776.32 C 488.09 777.72 486.97 779.39 486.58 780.90 C 480.44 797.93 474.56 815.05 468.37 832.05 C 462.84 816.78 457.24 801.53 451.68 786.26 C 450.57 783.17 449.16 780.16 448.66 776.90 C 451.07 775.40 454.06 775.78 456.76 775.41 C 456.75 773.34 456.74 771.29 456.75 769.25 C 445.67 769.24 434.59 769.27 423.52 769.24 M 516.25 769.25 C 516.25 771.29 516.24 773.35 516.24 775.41 C 519.35 775.65 522.60 775.62 525.46 777.07 C 525.56 798.59 525.46 820.10 525.51 841.62 C 524.88 842.23 524.26 842.85 523.64 843.49 C 521.18 843.72 518.72 843.93 516.27 844.15 C 516.25 846.18 516.24 848.20 516.24 850.25 C 537.91 850.25 559.58 850.25 581.25 850.25 C 581.25 843.00 581.24 835.76 581.26 828.51 C 578.42 828.50 575.60 828.49 572.78 828.50 C 571.71 833.42 571.98 838.74 569.60 843.29 C 560.24 843.21 550.88 843.26 541.52 843.26 C 541.47 832.92 541.51 822.59 541.50 812.25 C 546.84 812.49 552.32 811.72 557.58 812.64 C 559.84 815.19 558.98 819.32 559.85 822.49 C 562.31 822.49 564.78 822.49 567.26 822.49 C 567.24 813.07 567.26 803.66 567.24 794.24 C 564.78 794.24 562.31 794.24 559.86 794.25 C 559.46 797.12 559.04 800.00 558.68 802.89 C 558.06 803.51 557.44 804.13 556.82 804.77 C 551.71 804.73 546.60 804.76 541.49 804.73 C 541.50 795.24 541.51 785.76 541.48 776.28 C 549.65 776.26 557.82 776.17 566.00 776.33 C 567.40 780.26 567.98 784.40 568.75 788.49 C 571.66 788.49 574.58 788.49 577.50 788.50 C 577.50 782.09 577.48 775.68 577.51 769.28 C 557.09 769.22 536.67 769.27 516.25 769.25 M 595.25 769.25 C 595.25 771.29 595.24 773.34 595.24 775.41 C 597.69 775.60 600.15 775.83 602.61 776.10 C 603.02 776.55 603.84 777.43 604.25 777.88 C 604.24 798.24 604.25 818.61 604.26 838.97 C 604.44 840.63 603.68 842.08 602.84 843.44 C 600.30 843.68 597.77 843.91 595.24 844.14 C 595.24 846.16 595.24 848.20 595.25 850.25 C 606.67 850.25 618.09 850.25 629.52 850.25 C 629.49 848.20 629.47 846.16 629.44 844.13 C 626.30 843.79 622.80 844.18 620.23 841.99 C 620.31 832.86 620.16 823.74 620.31 814.61 C 625.40 814.80 631.21 815.10 634.93 819.08 C 641.84 827.15 641.13 839.48 649.39 846.69 C 656.55 852.79 666.65 851.05 675.24 850.20 C 675.24 848.24 675.24 846.29 675.26 844.36 C 670.43 843.97 664.38 844.27 661.44 839.61 C 657.21 832.85 656.93 824.30 652.25 817.74 C 649.58 813.76 644.92 811.95 640.56 810.51 C 645.07 809.53 649.60 808.10 653.32 805.27 C 663.10 798.08 663.02 780.91 652.76 774.19 C 646.65 770.11 639.08 769.35 631.92 769.25 C 619.70 769.25 607.48 769.25 595.25 769.25 M 685.77 769.24 C 685.75 771.29 685.74 773.34 685.73 775.41 C 688.65 776.22 694.86 774.38 694.96 778.91 C 695.09 799.71 694.90 820.53 695.05 841.34 C 692.67 843.98 688.97 843.74 685.76 844.28 C 685.75 846.26 685.74 848.25 685.75 850.25 C 695.00 850.25 704.25 850.25 713.50 850.25 C 713.49 848.26 713.49 846.28 713.49 844.30 C 710.20 843.72 706.34 844.12 703.94 841.33 C 704.07 826.20 703.97 811.07 703.99 795.94 C 704.05 792.39 703.65 788.78 704.53 785.31 C 704.84 786.84 705.43 788.27 706.30 789.60 C 719.36 809.77 732.46 829.93 745.41 850.18 C 750.02 850.29 754.63 850.24 759.25 850.25 C 759.25 826.31 759.25 802.37 759.25 778.43 C 759.95 777.64 760.65 776.86 761.37 776.08 C 763.74 775.88 766.12 775.65 768.51 775.43 C 768.49 773.36 768.49 771.30 768.50 769.25 C 759.25 769.24 750.01 769.26 740.77 769.24 C 740.75 771.30 740.74 773.36 740.74 775.44 C 743.19 775.66 745.66 775.89 748.13 776.04 C 748.91 777.25 750.43 778.29 750.23 779.93 C 750.27 796.35 750.26 812.76 750.23 829.18 C 738.30 810.95 726.59 792.59 714.72 774.33 C 713.58 772.86 713.49 770.97 713.25 769.22 C 704.09 769.27 694.93 769.25 685.77 769.24 M 873.25 769.25 C 873.24 771.29 873.24 773.34 873.24 775.40 C 876.11 776.04 880.72 774.80 882.14 777.99 C 882.40 798.33 882.17 818.69 882.26 839.04 C 882.44 840.67 881.65 842.09 880.84 843.45 C 878.30 843.68 875.77 843.91 873.25 844.13 C 873.24 846.16 873.24 848.19 873.24 850.24 C 884.66 850.26 896.08 850.24 907.50 850.25 C 907.49 848.20 907.49 846.16 907.49 844.13 C 904.33 843.80 900.82 844.18 898.23 842.01 C 898.28 832.89 898.23 823.77 898.26 814.66 C 903.33 814.82 909.23 815.01 912.93 819.04 C 919.88 827.08 919.16 839.44 927.45 846.60 C 934.51 852.84 944.68 851.02 953.25 850.21 C 953.24 848.25 953.24 846.30 953.26 844.36 C 948.36 844.03 942.32 844.16 939.38 839.46 C 935.18 832.46 934.87 823.65 929.83 817.07 C 927.09 813.51 922.72 811.87 918.58 810.58 C 925.73 809.06 933.44 805.80 936.73 798.78 C 939.98 791.22 939.09 781.13 932.59 775.53 C 926.63 770.57 918.58 769.43 911.08 769.27 C 898.47 769.22 885.86 769.26 873.25 769.25 Z"></path><path fill="#16c1f3" opacity="1.00" d=" M 262.50 168.87 C 264.87 164.97 267.33 161.12 270.15 157.52 C 270.55 162.06 270.62 166.63 270.80 171.19 C 275.30 172.40 279.83 173.53 284.24 175.04 C 279.93 176.73 275.56 178.29 271.21 179.90 C 271.31 184.66 271.54 189.43 271.80 194.19 C 268.79 190.51 265.88 186.76 262.94 183.04 C 258.52 184.72 254.12 186.45 249.66 188.03 C 252.17 184.01 254.92 180.15 257.54 176.20 C 254.59 172.55 251.62 168.91 248.80 165.15 C 253.38 166.37 257.92 167.70 262.50 168.87 Z"></path><path fill="#16c1f3" opacity="1.00" d=" M 951.11 183.82 C 954.12 180.31 957.06 176.74 960.28 173.40 C 960.02 178.04 959.58 182.67 959.26 187.30 C 963.65 189.04 968.03 190.84 972.36 192.74 C 968.56 193.72 964.70 194.44 960.89 195.37 C 960.05 195.72 958.42 195.68 958.53 196.98 C 957.91 201.33 957.87 205.73 957.47 210.10 C 954.92 206.06 952.50 201.95 950.03 197.87 C 945.44 199.02 940.84 200.15 936.21 201.08 C 939.29 197.49 942.45 193.96 945.47 190.31 C 942.93 186.40 940.43 182.45 938.17 178.38 C 942.53 180.07 946.81 181.97 951.11 183.82 Z"></path><path fill="#16c1f3" opacity="1.00" d=" M 211.10 214.58 C 213.21 210.33 215.26 206.04 217.46 201.83 C 218.25 206.49 218.98 211.17 219.78 215.83 C 224.31 216.45 228.86 217.03 233.37 217.79 C 229.48 220.29 225.30 222.28 221.20 224.39 C 221.95 228.98 222.77 233.56 223.48 238.17 C 219.89 235.15 216.65 231.76 213.27 228.52 C 209.19 230.84 205.05 233.06 200.85 235.16 C 202.90 230.88 205.08 226.67 207.10 222.37 C 203.75 219.13 200.41 215.87 197.10 212.58 C 201.78 213.18 206.43 213.90 211.10 214.58 Z"></path><path fill="#16c1f3" opacity="1.00" d=" M 1000.54 231.11 C 1003.95 227.90 1007.37 224.71 1010.98 221.72 C 1010.00 226.36 1008.95 230.98 1008.09 235.65 C 1012.23 237.87 1016.32 240.20 1020.34 242.66 C 1015.63 243.17 1010.92 243.59 1006.22 244.10 C 1005.35 248.62 1004.51 253.15 1003.45 257.64 C 1001.24 253.55 999.45 249.26 997.68 244.98 C 993.02 245.46 988.36 245.98 983.70 246.35 C 987.02 243.11 990.53 240.07 993.97 236.96 C 992.03 232.67 990.02 228.40 988.16 224.07 C 992.32 226.35 996.38 228.81 1000.54 231.11 Z"></path><path fill="#ffcb08" opacity="1.00" d=" M 718.57 248.84 C 728.82 264.34 738.83 280.00 748.99 295.56 C 766.99 290.55 784.93 285.33 802.94 280.36 C 791.29 294.94 779.45 309.36 767.76 323.90 C 778.00 339.39 788.49 354.72 798.57 370.32 C 781.18 363.88 763.89 357.19 746.57 350.56 C 734.79 365.05 723.45 379.89 711.62 394.34 C 712.48 375.81 713.66 357.30 714.58 338.77 C 697.12 332.21 679.55 325.97 662.11 319.35 C 680.13 314.44 698.16 309.63 716.18 304.75 C 716.92 286.11 717.82 267.48 718.57 248.84 Z"></path><path fill="#16c1f3" opacity="1.00" d=" M 165.97 266.26 C 167.54 261.77 169.06 257.27 170.65 252.79 C 172.04 257.34 173.36 261.92 174.68 266.49 C 179.28 266.45 183.89 266.42 188.48 266.81 C 184.86 269.68 180.99 272.22 177.18 274.83 C 178.58 279.30 179.98 283.78 181.19 288.31 C 177.40 285.60 173.75 282.70 170.04 279.88 C 166.20 282.58 162.41 285.35 158.46 287.89 C 159.93 283.40 161.58 278.97 163.03 274.48 C 159.19 271.75 155.42 268.92 151.70 266.03 C 156.45 266.18 161.21 266.29 165.97 266.26 Z"></path><path fill="#16c1f3" opacity="1.00" d=" M 1032.17 275.75 C 1036.03 278.49 1039.70 281.49 1043.56 284.24 C 1047.31 281.53 1051.06 278.80 1054.92 276.24 C 1053.59 280.71 1052.00 285.10 1050.37 289.48 C 1054.11 292.36 1057.96 295.10 1061.57 298.15 C 1056.94 298.10 1052.31 297.99 1047.69 297.71 C 1046.13 302.20 1044.65 306.71 1042.91 311.13 C 1041.53 306.58 1040.20 302.01 1038.76 297.47 C 1034.18 297.53 1029.60 297.57 1025.04 297.31 C 1028.61 294.35 1032.53 291.87 1036.31 289.18 C 1034.86 284.73 1033.43 280.26 1032.17 275.75 Z"></path><path fill="#16c1f3" opacity="1.00" d=" M 130.54 309.53 C 132.66 313.66 134.47 317.95 136.19 322.27 C 140.86 321.85 145.51 321.22 150.20 321.07 C 146.80 324.20 143.31 327.24 139.89 330.34 C 141.81 334.64 143.76 338.93 145.61 343.26 C 141.50 341.04 137.48 338.67 133.49 336.24 C 129.90 339.40 126.40 342.66 122.88 345.89 C 123.76 341.23 124.79 336.60 125.87 331.98 C 121.86 329.60 117.76 327.38 113.82 324.90 C 118.39 324.23 122.99 323.80 127.60 323.41 C 128.64 318.79 129.58 314.16 130.54 309.53 Z"></path><path fill="#16c1f3" opacity="1.00" d=" M 1069.32 332.74 C 1072.79 335.79 1076.16 338.95 1079.38 342.27 C 1083.55 340.19 1087.63 337.91 1091.86 335.91 C 1090.04 340.07 1087.53 343.90 1085.98 348.17 C 1088.43 352.06 1092.68 354.69 1095.57 358.36 C 1090.96 357.80 1086.39 357.04 1081.81 356.31 C 1079.85 360.57 1077.83 364.80 1075.53 368.89 C 1074.74 364.27 1073.99 359.65 1073.19 355.05 C 1068.64 354.35 1064.08 353.79 1059.57 352.95 C 1063.45 350.46 1067.64 348.54 1071.71 346.39 C 1070.88 341.84 1070.05 337.30 1069.32 332.74 Z"></path><path fill="#ffcb08" opacity="1.00" d=" M 652.30 337.37 C 654.51 336.19 657.69 337.37 658.14 339.99 C 659.03 342.60 656.54 344.51 654.62 345.71 C 641.67 354.05 628.96 362.77 615.99 371.07 C 613.61 372.91 609.72 370.96 609.71 368.00 C 609.24 365.05 612.36 363.70 614.32 362.26 C 627.05 354.08 639.50 345.44 652.30 337.37 Z"></path><path fill="#ffcb08" opacity="1.00" d=" M 679.49 355.28 C 681.90 353.24 686.10 354.75 686.26 358.02 C 686.67 360.34 684.61 361.76 682.97 362.89 C 664.51 375.09 646.05 387.28 627.59 399.46 C 622.33 402.61 617.63 406.76 612.02 409.27 C 607.56 410.23 605.42 403.40 609.48 401.53 C 632.77 386.05 656.12 370.65 679.49 355.28 Z"></path><path fill="#16c1f3" opacity="1.00" d=" M 98.03 370.69 C 100.60 374.51 102.89 378.51 105.14 382.53 C 109.82 381.56 114.46 380.38 119.11 379.28 C 116.08 382.93 112.93 386.48 109.84 390.07 C 112.26 394.13 114.75 398.14 117.10 402.24 C 112.74 400.48 108.44 398.59 104.11 396.77 C 101.07 400.34 98.09 403.96 94.92 407.42 C 95.21 402.71 95.67 398.01 96.04 393.31 C 91.81 391.65 87.49 390.13 83.56 387.80 C 87.95 386.67 92.38 385.72 96.79 384.69 C 97.19 380.02 97.53 375.35 98.03 370.69 Z"></path><path fill="#004689" opacity="1.00" d=" M 256.01 384.01 C 276.90 373.53 300.78 370.03 323.96 371.51 C 343.71 373.46 363.08 379.64 380.26 389.59 C 379.72 384.31 379.27 379.03 378.71 373.75 C 388.47 373.75 398.24 373.75 408.00 373.75 C 408.00 403.09 408.01 432.42 407.99 461.76 C 399.77 461.74 391.54 461.76 383.32 461.75 C 380.39 444.25 374.53 426.16 361.31 413.67 C 347.93 400.73 328.05 396.79 310.06 399.11 C 295.93 400.72 282.57 407.46 272.69 417.65 C 257.49 432.63 249.39 453.27 245.43 473.91 C 241.12 496.72 241.65 520.40 246.31 543.12 C 250.62 563.04 258.86 582.92 273.83 597.23 C 283.54 606.90 296.42 613.26 309.99 615.16 C 330.65 618.17 351.89 612.97 369.99 602.92 C 384.91 594.81 397.80 583.22 407.94 569.63 C 413.93 575.31 420.31 580.60 426.10 586.48 C 416.08 600.50 404.10 613.31 389.98 623.29 C 377.80 631.97 363.71 637.52 349.40 641.61 C 325.07 648.42 298.88 648.43 274.52 641.76 C 243.67 633.25 216.60 611.99 201.09 583.98 C 177.78 542.75 177.76 490.59 196.79 447.72 C 208.50 420.57 229.65 397.51 256.01 384.01 Z"></path><path fill="#ffcb08" opacity="1.00" d=" M 685.39 387.45 C 687.88 385.89 691.49 388.08 691.29 391.00 C 691.66 393.39 689.29 394.55 687.69 395.75 C 675.47 403.83 663.20 411.85 651.02 420.02 C 649.55 420.90 647.98 422.06 646.15 421.76 C 643.27 421.45 641.60 417.58 643.55 415.33 C 645.52 413.27 648.13 411.97 650.45 410.35 C 662.17 402.83 673.59 394.83 685.39 387.45 Z"></path><path fill="#16c1f3" opacity="1.00" d=" M 1099.00 393.40 C 1102.05 397.02 1104.90 400.81 1107.85 404.51 C 1112.18 402.84 1116.51 401.15 1120.94 399.72 C 1118.48 403.62 1115.89 407.44 1113.28 411.23 C 1116.12 415.03 1119.18 418.68 1122.01 422.50 C 1117.44 421.31 1112.94 419.89 1108.37 418.73 C 1105.93 422.67 1103.49 426.62 1100.64 430.28 C 1100.45 425.61 1100.30 420.94 1100.08 416.27 C 1095.55 415.10 1091.03 413.90 1086.60 412.42 C 1090.98 410.73 1095.40 409.17 1099.76 407.45 C 1099.40 402.77 1099.16 398.09 1099.00 393.40 Z"></path><path fill="#16c1f3" opacity="1.00" d=" M 73.30 435.50 C 76.47 438.88 79.20 442.62 82.04 446.28 C 86.43 444.63 90.80 442.90 95.21 441.29 C 92.78 445.33 90.11 449.22 87.48 453.14 C 90.41 456.81 93.36 460.46 96.17 464.22 C 91.64 463.07 87.15 461.78 82.67 460.44 C 80.10 464.35 77.62 468.32 74.90 472.14 C 74.56 467.47 74.45 462.80 74.23 458.13 C 69.72 456.90 65.20 455.70 60.70 454.47 C 64.96 452.55 69.38 451.00 73.81 449.52 C 73.72 444.84 73.45 440.17 73.30 435.50 Z"></path><path fill="#004689" opacity="1.00" d=" M 748.92 454.12 C 770.96 449.48 795.38 451.95 814.60 464.31 C 814.28 460.78 813.93 457.26 813.64 453.74 C 820.59 453.76 827.54 453.74 834.50 453.75 C 834.50 474.25 834.50 494.75 834.50 515.25 C 828.61 515.25 822.72 515.25 816.84 515.25 C 814.65 502.08 809.59 488.47 798.78 479.97 C 789.45 472.32 776.66 469.98 764.92 471.72 C 756.01 473.43 746.83 478.82 743.77 487.81 C 741.04 496.89 744.91 507.07 752.34 512.76 C 767.73 524.86 787.04 529.87 804.21 538.73 C 814.82 544.31 825.30 550.61 833.79 559.18 C 844.82 570.64 847.87 587.89 844.58 603.08 C 841.75 615.95 833.04 627.10 821.86 633.88 C 808.50 642.19 792.46 645.07 776.91 644.95 C 761.29 644.42 745.89 639.79 732.34 632.06 C 732.60 635.70 732.89 639.34 733.07 643.00 C 726.21 643.00 719.36 643.00 712.50 643.00 C 712.52 622.41 712.46 601.82 712.53 581.23 C 718.38 581.38 724.25 581.00 730.09 581.41 C 732.30 593.38 736.92 605.50 746.25 613.75 C 756.68 623.33 771.59 627.16 785.47 625.25 C 793.82 624.10 801.91 619.79 806.81 612.81 C 811.10 606.73 811.69 598.27 808.19 591.69 C 804.37 585.02 797.74 580.44 790.98 577.10 C 774.79 569.51 757.46 564.27 742.14 554.87 C 730.18 547.54 718.06 538.54 712.60 525.13 C 706.97 511.26 706.51 494.85 713.12 481.22 C 719.60 466.95 733.98 457.54 748.92 454.12 Z"></path><path fill="#004689" opacity="1.00" d=" M 429.49 456.27 C 442.66 455.56 455.86 456.39 469.03 455.80 C 481.35 455.59 493.68 456.00 506.00 455.54 C 525.44 455.81 546.19 457.99 562.51 469.56 C 574.76 478.16 580.21 493.52 580.27 508.03 C 580.87 520.02 577.06 532.16 569.47 541.50 C 560.69 552.67 547.50 559.34 534.10 563.26 C 541.65 566.88 547.69 573.05 552.20 580.02 C 557.48 588.07 562.95 595.98 568.25 604.01 C 571.69 609.04 575.39 613.98 579.98 618.04 C 583.86 621.38 588.97 622.80 594.00 623.17 C 594.00 629.03 594.00 634.89 593.99 640.76 C 579.40 640.76 564.80 640.71 550.21 640.78 C 544.04 636.18 539.69 629.71 535.53 623.36 C 526.43 608.76 517.57 594.01 508.31 579.51 C 505.72 575.94 503.47 571.94 500.04 569.11 C 495.62 568.81 491.18 569.07 486.75 569.00 C 486.46 586.30 487.48 603.64 485.90 620.89 C 493.33 620.32 500.78 620.16 508.23 620.24 C 508.26 627.08 508.27 633.92 508.22 640.77 C 481.99 640.73 455.75 640.75 429.51 640.76 C 429.49 634.88 429.52 629.00 429.48 623.13 C 434.24 622.62 439.80 622.90 443.51 619.34 C 447.37 615.30 448.00 609.38 448.24 604.06 C 448.27 575.39 448.24 546.71 448.25 518.04 C 448.26 504.01 448.07 489.95 449.31 475.95 C 442.69 476.10 436.09 476.42 429.49 476.68 C 429.51 469.87 429.50 463.07 429.49 456.27 M 489.76 479.86 C 486.76 485.04 487.04 491.25 486.77 497.02 C 486.73 514.30 486.74 531.57 486.77 548.85 C 496.93 550.15 507.45 550.47 517.40 547.64 C 523.79 545.82 529.90 542.21 533.62 536.58 C 539.28 528.29 540.33 517.86 540.21 508.08 C 539.83 498.92 538.10 488.52 530.46 482.48 C 522.60 476.68 512.63 474.03 502.93 474.29 C 498.14 474.56 492.62 475.59 489.76 479.86 Z"></path><path fill="#004689" opacity="1.00" d=" M 614.00 456.25 C 639.33 456.25 664.66 456.25 690.00 456.25 C 690.00 462.05 690.00 467.85 690.00 473.66 C 685.56 474.18 680.62 474.01 676.85 476.77 C 672.22 480.71 671.45 487.21 671.26 492.92 C 671.24 522.95 671.25 552.99 671.25 583.02 C 671.25 595.64 671.37 608.28 670.15 620.86 C 676.76 620.43 683.37 620.11 690.00 620.25 C 690.00 627.08 690.00 633.92 689.99 640.75 C 664.66 640.74 639.33 640.75 614.00 640.75 C 613.99 634.87 614.00 628.99 614.00 623.11 C 618.96 622.63 624.99 622.80 628.48 618.60 C 632.80 613.08 632.39 605.67 632.72 599.05 C 632.79 572.38 632.73 545.72 632.75 519.05 C 632.95 504.68 632.16 490.28 633.61 475.95 C 627.07 476.09 620.53 476.42 614.00 476.67 C 614.00 469.86 613.99 463.05 614.00 456.25 Z"></path><path fill="#004689" opacity="1.00" d=" M 853.77 456.25 C 907.17 456.27 960.57 456.22 1013.97 456.27 C 1014.32 476.18 1014.89 496.09 1015.53 516.00 C 1009.62 516.00 1003.71 516.00 997.80 516.00 C 997.73 506.03 996.47 495.57 991.05 486.97 C 986.88 480.37 979.87 475.67 972.15 474.51 C 965.81 473.55 959.38 474.16 953.00 474.00 C 953.00 508.33 953.00 542.66 953.00 576.99 C 952.91 591.64 953.35 606.33 951.96 620.94 C 958.95 620.32 965.97 620.16 972.99 620.25 C 973.00 627.08 973.00 633.92 972.99 640.76 C 947.25 640.75 921.51 640.73 895.78 640.77 C 895.72 634.89 895.76 629.01 895.74 623.13 C 900.74 622.60 906.94 622.84 910.35 618.42 C 914.57 612.92 914.13 605.60 914.47 599.04 C 914.54 557.45 914.48 515.85 914.50 474.25 C 903.91 474.18 892.12 473.30 883.24 480.24 C 872.26 488.44 870.10 503.20 869.94 516.00 C 864.07 516.00 858.21 516.00 852.35 516.00 C 852.86 496.08 853.12 476.16 853.77 456.25 Z"></path><path fill="#16c1f3" opacity="1.00" d=" M 1120.93 457.80 C 1123.57 461.51 1125.47 465.68 1128.15 469.35 C 1132.80 469.19 1137.26 467.29 1141.86 466.51 C 1139.00 470.18 1135.90 473.65 1132.79 477.10 C 1135.16 481.22 1137.72 485.23 1140.11 489.34 C 1135.73 487.65 1131.44 485.74 1127.13 483.90 C 1124.06 487.46 1121.05 491.07 1117.95 494.60 C 1118.23 489.85 1118.69 485.12 1119.01 480.39 C 1114.79 478.72 1110.48 477.19 1106.58 474.85 C 1110.95 473.72 1115.36 472.77 1119.75 471.74 C 1120.11 467.09 1120.42 462.44 1120.93 457.80 Z"></path><path fill="#ffffff" opacity="1.00" d=" M 489.76 479.86 C 492.62 475.59 498.14 474.56 502.93 474.29 C 512.63 474.03 522.60 476.68 530.46 482.48 C 538.10 488.52 539.83 498.92 540.21 508.08 C 540.33 517.86 539.28 528.29 533.62 536.58 C 529.90 542.21 523.79 545.82 517.40 547.64 C 507.45 550.47 496.93 550.15 486.77 548.85 C 486.74 531.57 486.73 514.30 486.77 497.02 C 487.04 491.25 486.76 485.04 489.76 479.86 Z"></path><path fill="#16c1f3" opacity="1.00" d=" M 56.92 502.47 C 60.38 505.66 63.65 509.04 66.99 512.35 C 71.08 510.16 75.15 507.92 79.31 505.86 C 77.34 510.18 75.11 514.38 73.16 518.71 C 76.67 521.72 79.99 524.96 83.07 528.41 C 78.53 527.79 73.99 527.08 69.47 526.28 C 67.30 530.46 65.34 534.75 63.09 538.90 C 62.16 534.34 61.43 529.75 60.76 525.15 C 56.16 524.45 51.54 523.87 46.96 523.05 C 50.72 520.61 54.98 519.04 58.72 516.57 C 59.17 511.91 57.29 507.18 56.92 502.47 Z"></path><path fill="#16c1f3" opacity="1.00" d=" M 1134.51 524.13 C 1136.57 528.35 1138.42 532.68 1140.24 537.01 C 1144.91 536.50 1149.56 535.95 1154.25 535.52 C 1150.88 538.77 1147.37 541.86 1143.87 544.97 C 1145.77 549.28 1147.75 553.57 1149.59 557.93 C 1145.43 555.68 1141.40 553.20 1137.29 550.90 C 1133.90 554.12 1130.49 557.31 1126.94 560.34 C 1127.82 555.71 1128.87 551.10 1129.81 546.48 C 1125.72 544.16 1121.64 541.82 1117.60 539.42 C 1122.29 538.85 1127.00 538.40 1131.71 537.89 C 1132.53 533.28 1133.43 528.69 1134.51 524.13 Z"></path><path fill="#16c1f3" opacity="1.00" d=" M 48.98 571.17 C 52.77 574.02 56.51 576.94 60.26 579.83 C 64.09 577.10 67.90 574.34 71.85 571.77 C 70.37 576.26 68.75 580.70 67.18 585.16 C 70.97 587.96 74.79 590.73 78.40 593.78 C 73.67 593.62 68.93 593.42 64.19 593.57 C 62.81 598.08 61.31 602.57 59.70 607.01 C 58.38 602.44 57.03 597.87 55.68 593.31 C 51.00 593.24 46.31 593.06 41.63 592.88 C 45.42 590.15 49.28 587.53 53.12 584.87 C 51.73 580.31 50.30 575.75 48.98 571.17 Z"></path><path fill="#16c1f3" opacity="1.00" d=" M 1139.65 591.70 C 1141.19 596.16 1142.48 600.70 1143.84 605.21 C 1148.52 605.24 1153.21 605.42 1157.91 605.54 C 1154.08 608.30 1150.19 610.96 1146.34 613.67 C 1147.73 618.13 1149.16 622.58 1150.37 627.09 C 1146.52 624.41 1142.90 621.43 1139.11 618.67 C 1135.36 621.40 1131.61 624.14 1127.72 626.66 C 1129.10 622.17 1130.76 617.76 1132.24 613.30 C 1128.52 610.55 1124.76 607.85 1121.28 604.81 C 1125.89 604.82 1130.50 605.02 1135.12 605.02 C 1136.62 600.58 1138.14 596.14 1139.65 591.70 Z"></path><path fill="#16c1f3" opacity="1.00" d=" M 62.05 647.60 C 65.51 644.45 68.92 641.24 72.48 638.22 C 71.64 642.84 70.57 647.42 69.66 652.04 C 73.67 654.28 77.70 656.49 81.54 659.03 C 76.97 659.68 72.37 660.08 67.80 660.61 C 66.94 665.18 66.06 669.76 64.83 674.26 C 62.89 670.02 61.08 665.72 59.16 661.48 C 54.50 662.02 49.84 662.57 45.17 662.98 C 48.59 659.73 52.15 656.64 55.62 653.45 C 53.72 649.21 51.74 645.00 49.94 640.73 C 54.11 642.77 58.06 645.22 62.05 647.60 Z"></path><path fill="#16c1f3" opacity="1.00" d=" M 1130.12 672.15 C 1132.17 667.92 1134.18 663.66 1136.47 659.55 C 1137.28 664.12 1137.99 668.70 1138.71 673.29 C 1143.32 674.05 1147.96 674.69 1152.60 675.35 C 1148.60 677.76 1144.42 679.86 1140.27 681.98 C 1141.02 686.66 1141.86 691.33 1142.57 696.03 C 1139.09 692.79 1135.81 689.35 1132.33 686.11 C 1128.29 688.41 1124.20 690.63 1120.04 692.70 C 1121.98 688.39 1124.14 684.18 1126.28 679.96 C 1122.82 676.70 1119.48 673.35 1116.09 670.04 C 1120.77 670.67 1125.44 671.40 1130.12 672.15 Z"></path><path fill="#004689" opacity="1.00" d=" M 590.13 683.25 C 597.47 681.49 605.68 682.65 611.78 687.26 C 624.48 696.62 625.26 718.02 613.29 728.30 C 603.65 736.92 587.09 736.15 578.41 726.51 C 572.03 719.42 570.73 708.95 573.01 699.95 C 574.99 691.74 581.93 685.12 590.13 683.25 M 593.51 687.73 C 589.24 688.97 586.35 692.84 584.84 696.84 C 582.68 702.79 582.56 709.33 583.60 715.53 C 584.53 720.57 586.78 725.90 591.40 728.58 C 595.80 731.21 601.84 730.12 605.26 726.37 C 609.76 721.45 610.87 714.43 610.77 708.00 C 610.63 701.93 609.42 695.41 605.20 690.79 C 602.34 687.56 597.57 686.46 593.51 687.73 Z"></path><path fill="#004689" opacity="1.00" d=" M 530.00 683.50 C 542.42 683.50 554.83 683.50 567.25 683.50 C 567.25 687.66 567.25 691.83 567.25 696.00 C 565.52 695.99 563.79 695.99 562.08 696.00 C 561.38 693.35 561.86 690.00 560.01 687.88 C 555.27 687.53 550.50 687.84 545.75 687.75 C 545.75 693.92 545.75 700.08 545.75 706.25 C 549.28 706.25 552.80 706.26 556.33 706.19 C 556.78 704.05 557.15 701.90 557.50 699.76 C 558.91 699.74 560.32 699.73 561.74 699.74 C 561.75 705.49 561.74 711.25 561.75 717.02 C 560.32 716.99 558.89 716.98 557.48 716.97 C 557.02 714.87 557.21 712.51 556.01 710.65 C 552.60 710.32 549.17 710.53 545.75 710.51 C 545.86 716.28 545.52 722.08 545.89 727.85 C 547.50 729.59 550.14 728.90 552.27 729.34 C 552.26 730.19 552.24 731.90 552.24 732.76 C 545.00 732.74 537.76 732.75 530.52 732.75 C 530.49 731.63 530.47 730.52 530.46 729.41 C 532.63 729.06 536.60 729.31 536.00 726.00 C 535.85 713.34 536.32 700.65 535.76 688.02 C 533.94 687.25 531.92 687.30 530.00 687.09 C 530.00 686.19 530.00 684.40 530.00 683.50 Z"></path><path fill="#004689" opacity="1.00" d=" M 626.75 683.50 C 634.16 683.50 641.58 683.50 648.99 683.49 C 653.31 683.53 657.87 683.99 661.60 686.37 C 667.80 690.17 668.19 700.17 662.80 704.83 C 660.45 707.00 657.27 707.87 654.26 708.66 C 656.75 709.69 659.50 710.59 661.19 712.85 C 664.36 716.95 664.40 722.52 667.21 726.80 C 669.07 729.45 672.61 729.27 675.49 729.68 C 675.49 730.78 675.51 731.89 675.53 733.01 C 670.37 733.50 664.36 734.50 660.04 730.88 C 654.88 726.55 655.24 718.95 651.10 713.94 C 648.86 711.36 645.18 711.35 642.06 711.08 C 642.04 716.69 641.82 722.33 642.11 727.94 C 643.41 729.65 645.88 729.01 647.75 729.46 C 647.74 730.62 647.75 731.80 647.76 732.99 C 640.75 733.01 633.74 732.99 626.74 733.00 C 626.75 732.12 626.77 730.36 626.78 729.48 C 628.45 729.25 630.15 729.10 631.78 728.60 C 632.57 726.85 632.15 724.84 632.28 723.00 C 632.09 711.38 632.51 699.74 632.08 688.14 C 630.42 687.32 628.53 687.30 626.76 687.03 C 626.75 686.15 626.75 684.39 626.75 683.50 M 642.01 687.70 C 641.99 694.15 642.00 700.61 642.00 707.07 C 646.08 706.97 650.87 707.21 653.99 704.08 C 657.04 700.46 657.13 694.50 654.16 690.80 C 651.08 687.47 646.16 687.72 642.01 687.70 Z"></path><path fill="#ffffff" opacity="1.00" d=" M 593.51 687.73 C 597.57 686.46 602.34 687.56 605.20 690.79 C 609.42 695.41 610.63 701.93 610.77 708.00 C 610.87 714.43 609.76 721.45 605.26 726.37 C 601.84 730.12 595.80 731.21 591.40 728.58 C 586.78 725.90 584.53 720.57 583.60 715.53 C 582.56 709.33 582.68 702.79 584.84 696.84 C 586.35 692.84 589.24 688.97 593.51 687.73 Z"></path><path fill="#ffffff" opacity="1.00" d=" M 642.01 687.70 C 646.16 687.72 651.08 687.47 654.16 690.80 C 657.13 694.50 657.04 700.46 653.99 704.08 C 650.87 707.21 646.08 706.97 642.00 707.07 C 642.00 700.61 641.99 694.15 642.01 687.70 Z"></path><path fill="#16c1f3" opacity="1.00" d=" M 381.33 701.29 C 382.77 700.58 384.44 700.81 386.00 700.72 C 427.33 700.82 468.67 700.68 510.00 700.78 C 513.79 700.27 516.30 705.16 514.16 708.14 C 512.87 710.26 510.21 710.30 508.02 710.28 C 466.69 710.18 425.36 710.32 384.03 710.21 C 379.03 711.00 376.96 703.39 381.33 701.29 Z"></path><path fill="#16c1f3" opacity="1.00" d=" M 687.31 701.45 C 688.71 700.58 690.46 700.83 692.04 700.72 C 733.03 700.81 774.01 700.69 815.00 700.78 C 818.85 700.24 821.46 705.10 819.20 708.13 C 817.95 710.35 815.25 710.29 813.05 710.28 C 772.02 710.17 730.99 710.34 689.97 710.19 C 685.29 710.64 683.46 703.71 687.31 701.45 Z"></path><path fill="#16c1f3" opacity="1.00" d=" M 72.29 714.61 C 75.37 711.10 78.31 707.48 81.50 704.08 C 81.23 708.73 80.79 713.37 80.43 718.02 C 84.77 719.81 89.14 721.54 93.36 723.60 C 88.83 724.69 84.28 725.68 79.74 726.74 C 79.35 731.44 79.01 736.14 78.61 740.84 C 76.04 736.86 73.67 732.77 71.18 728.75 C 66.68 729.85 62.18 730.99 57.64 731.93 C 60.53 728.24 63.68 724.79 66.71 721.23 C 64.24 717.23 61.74 713.25 59.40 709.17 C 63.75 710.85 68.03 712.71 72.29 714.61 Z"></path><path fill="#16c1f3" opacity="1.00" d=" M 1116.83 738.04 C 1119.43 734.01 1122.07 730.01 1124.68 725.99 C 1124.83 730.80 1124.99 735.61 1125.29 740.42 C 1129.86 741.57 1134.42 742.81 1138.93 744.20 C 1134.48 745.81 1130.04 747.46 1125.59 749.06 C 1125.80 753.78 1126.02 758.49 1126.16 763.21 C 1123.14 759.61 1120.31 755.86 1117.40 752.19 C 1113.00 753.90 1108.62 755.65 1104.15 757.15 C 1106.77 753.18 1109.45 749.26 1112.01 745.25 C 1109.07 741.67 1106.14 738.08 1103.38 734.37 C 1107.91 735.40 1112.37 736.72 1116.83 738.04 Z"></path><path fill="#004689" opacity="1.00" d=" M 271.03 770.87 C 285.23 765.96 300.83 767.80 315.00 771.92 C 315.00 778.86 315.00 785.81 314.99 792.75 C 312.00 792.74 309.00 792.74 306.01 792.75 C 305.23 788.82 304.68 784.84 303.81 780.93 C 303.50 778.61 301.32 777.16 299.19 776.74 C 288.79 773.94 276.39 777.03 269.81 785.92 C 263.18 794.75 262.14 806.51 263.60 817.14 C 264.76 826.12 269.38 835.10 277.46 839.68 C 284.00 843.53 291.88 843.76 299.25 843.08 C 299.28 834.86 299.18 826.64 299.31 818.42 C 296.18 816.16 292.10 816.97 288.49 816.46 C 288.50 814.39 288.50 812.31 288.50 810.25 C 300.34 810.25 312.18 810.25 324.02 810.25 C 324.00 812.33 323.98 814.42 323.95 816.52 C 321.60 816.70 319.26 816.88 316.91 817.06 C 316.27 817.65 315.63 818.24 315.00 818.84 C 315.00 828.20 315.00 837.56 315.00 846.92 C 302.17 851.11 288.16 853.60 274.86 850.16 C 261.34 846.81 250.20 835.60 246.82 822.10 C 244.44 812.26 244.61 801.57 248.41 792.10 C 252.38 782.16 261.05 774.48 271.03 770.87 Z"></path><path fill="#004689" opacity="1.00" d=" M 367.52 768.69 C 377.41 766.49 388.21 767.07 397.36 771.67 C 407.09 776.54 414.58 785.61 417.57 796.07 C 420.37 805.80 420.26 816.47 416.92 826.06 C 413.08 837.04 404.06 846.03 393.09 849.89 C 384.12 853.13 374.13 852.88 365.05 850.22 C 352.89 846.63 343.17 836.38 339.74 824.25 C 336.94 814.17 336.98 803.22 340.22 793.26 C 344.27 781.06 355.05 771.57 367.52 768.69 M 372.32 776.49 C 367.53 778.15 363.79 781.97 361.28 786.28 C 356.77 794.00 355.78 803.22 356.00 812.00 C 356.29 821.08 358.33 830.59 364.23 837.75 C 367.97 842.38 373.96 845.12 379.93 844.55 C 387.27 844.32 393.32 838.89 396.50 832.62 C 401.15 823.54 401.82 812.94 400.81 802.96 C 399.97 794.59 397.25 785.90 390.93 780.04 C 386.04 775.42 378.56 774.35 372.32 776.49 Z"></path><path fill="#004689" opacity="1.00" d=" M 809.45 768.64 C 816.85 767.00 824.66 767.03 832.02 768.95 C 842.91 771.85 852.20 779.87 857.01 790.03 C 861.93 800.62 862.53 813.04 859.27 824.21 C 855.56 836.84 845.06 847.16 832.38 850.69 C 817.13 854.86 798.93 850.85 788.80 838.14 C 779.40 826.82 777.79 810.80 780.90 796.85 C 784.03 783.00 795.63 771.71 809.45 768.64 M 815.17 776.14 C 809.72 777.60 805.48 781.87 802.80 786.68 C 798.48 794.33 797.51 803.34 797.75 811.98 C 798.02 820.91 799.96 830.26 805.69 837.37 C 809.27 842.03 815.06 844.96 820.99 844.58 C 827.85 844.62 833.91 840.07 837.26 834.33 C 842.84 824.95 843.62 813.53 842.54 802.90 C 841.68 794.40 838.85 785.50 832.27 779.68 C 827.68 775.59 820.99 774.56 815.17 776.14 Z"></path><path fill="#16c1f3" opacity="1.00" d=" M 91.01 779.81 C 93.54 775.85 96.05 771.89 98.78 768.08 C 99.03 772.75 99.21 777.43 99.30 782.12 C 103.73 783.37 108.24 784.41 112.52 786.16 C 108.33 787.87 104.04 789.36 99.78 790.90 C 100.03 795.59 100.28 800.29 100.47 804.99 C 97.39 801.44 94.53 797.72 91.70 793.98 C 87.28 795.61 82.88 797.33 78.44 798.92 C 80.90 794.89 83.58 791.01 86.17 787.07 C 83.20 783.35 80.21 779.65 77.24 775.94 C 81.86 777.13 86.43 778.49 91.01 779.81 Z"></path><path fill="#004689" opacity="1.00" d=" M 423.52 769.24 C 434.59 769.27 445.67 769.24 456.75 769.25 C 456.74 771.29 456.75 773.34 456.76 775.41 C 454.06 775.78 451.07 775.40 448.66 776.90 C 449.16 780.16 450.57 783.17 451.68 786.26 C 457.24 801.53 462.84 816.78 468.37 832.05 C 474.56 815.05 480.44 797.93 486.58 780.90 C 486.97 779.39 488.09 777.72 486.85 776.32 C 484.36 775.69 481.78 775.62 479.24 775.40 C 479.24 773.34 479.25 771.29 479.25 769.25 C 488.08 769.25 496.91 769.25 505.75 769.25 C 505.74 771.29 505.74 773.34 505.76 775.41 C 503.15 775.94 500.56 776.49 497.97 777.06 C 489.03 801.45 480.15 825.87 471.18 850.25 C 467.03 850.24 462.88 850.24 458.73 850.26 C 449.66 825.82 440.42 801.44 431.46 776.96 C 428.81 776.41 426.15 775.92 423.49 775.43 C 423.50 773.36 423.50 771.29 423.52 769.24 Z"></path><path fill="#004689" opacity="1.00" d=" M 516.25 769.25 C 536.67 769.27 557.09 769.22 577.51 769.28 C 577.48 775.68 577.50 782.09 577.50 788.50 C 574.58 788.49 571.66 788.49 568.75 788.49 C 567.98 784.40 567.40 780.26 566.00 776.33 C 557.82 776.17 549.65 776.26 541.48 776.28 C 541.51 785.76 541.50 795.24 541.49 804.73 C 546.60 804.76 551.71 804.73 556.82 804.77 C 557.44 804.13 558.06 803.51 558.68 802.89 C 559.04 800.00 559.46 797.12 559.86 794.25 C 562.31 794.24 564.78 794.24 567.24 794.24 C 567.26 803.66 567.24 813.07 567.26 822.49 C 564.78 822.49 562.31 822.49 559.85 822.49 C 558.98 819.32 559.84 815.19 557.58 812.64 C 552.32 811.72 546.84 812.49 541.50 812.25 C 541.51 822.59 541.47 832.92 541.52 843.26 C 550.88 843.26 560.24 843.21 569.60 843.29 C 571.98 838.74 571.71 833.42 572.78 828.50 C 575.60 828.49 578.42 828.50 581.26 828.51 C 581.24 835.76 581.25 843.00 581.25 850.25 C 559.58 850.25 537.91 850.25 516.24 850.25 C 516.24 848.20 516.25 846.18 516.27 844.15 C 518.72 843.93 521.18 843.72 523.64 843.49 C 524.26 842.85 524.88 842.23 525.51 841.62 C 525.46 820.10 525.56 798.59 525.46 777.07 C 522.60 775.62 519.35 775.65 516.24 775.41 C 516.24 773.35 516.25 771.29 516.25 769.25 Z"></path><path fill="#004689" opacity="1.00" d=" M 595.25 769.25 C 607.48 769.25 619.70 769.25 631.92 769.25 C 639.08 769.35 646.65 770.11 652.76 774.19 C 663.02 780.91 663.10 798.08 653.32 805.27 C 649.60 808.10 645.07 809.53 640.56 810.51 C 644.92 811.95 649.58 813.76 652.25 817.74 C 656.93 824.30 657.21 832.85 661.44 839.61 C 664.38 844.27 670.43 843.97 675.26 844.36 C 675.24 846.29 675.24 848.24 675.24 850.20 C 666.65 851.05 656.55 852.79 649.39 846.69 C 641.13 839.48 641.84 827.15 634.93 819.08 C 631.21 815.10 625.40 814.80 620.31 814.61 C 620.16 823.74 620.31 832.86 620.23 841.99 C 622.80 844.18 626.30 843.79 629.44 844.13 C 629.47 846.16 629.49 848.20 629.52 850.25 C 618.09 850.25 606.67 850.25 595.25 850.25 C 595.24 848.20 595.24 846.16 595.24 844.14 C 597.77 843.91 600.30 843.68 602.84 843.44 C 603.68 842.08 604.44 840.63 604.26 838.97 C 604.25 818.61 604.24 798.24 604.25 777.88 C 603.84 777.43 603.02 776.55 602.61 776.10 C 600.15 775.83 597.69 775.60 595.24 775.41 C 595.24 773.34 595.25 771.29 595.25 769.25 M 620.29 807.63 C 625.26 807.83 630.43 807.76 635.13 805.89 C 639.21 804.23 642.34 800.40 642.97 796.02 C 643.90 790.53 643.27 783.97 638.62 780.26 C 633.56 775.95 626.48 776.44 620.27 776.49 C 620.24 786.87 620.21 797.25 620.29 807.63 Z"></path><path fill="#004689" opacity="1.00" d=" M 685.77 769.24 C 694.93 769.25 704.09 769.27 713.25 769.22 C 713.49 770.97 713.58 772.86 714.72 774.33 C 726.59 792.59 738.30 810.95 750.23 829.18 C 750.26 812.76 750.27 796.35 750.23 779.93 C 750.43 778.29 748.91 777.25 748.13 776.04 C 745.66 775.89 743.19 775.66 740.74 775.44 C 740.74 773.36 740.75 771.30 740.77 769.24 C 750.01 769.26 759.25 769.24 768.50 769.25 C 768.49 771.30 768.49 773.36 768.51 775.43 C 766.12 775.65 763.74 775.88 761.37 776.08 C 760.65 776.86 759.95 777.64 759.25 778.43 C 759.25 802.37 759.25 826.31 759.25 850.25 C 754.63 850.24 750.02 850.29 745.41 850.18 C 732.46 829.93 719.36 809.77 706.30 789.60 C 705.43 788.27 704.84 786.84 704.53 785.31 C 703.65 788.78 704.05 792.39 703.99 795.94 C 703.97 811.07 704.07 826.20 703.94 841.33 C 706.34 844.12 710.20 843.72 713.49 844.30 C 713.49 846.28 713.49 848.26 713.50 850.25 C 704.25 850.25 695.00 850.25 685.75 850.25 C 685.74 848.25 685.75 846.26 685.76 844.28 C 688.97 843.74 692.67 843.98 695.05 841.34 C 694.90 820.53 695.09 799.71 694.96 778.91 C 694.86 774.38 688.65 776.22 685.73 775.41 C 685.74 773.34 685.75 771.29 685.77 769.24 Z"></path><path fill="#004689" opacity="1.00" d=" M 873.25 769.25 C 885.86 769.26 898.47 769.22 911.08 769.27 C 918.58 769.43 926.63 770.57 932.59 775.53 C 939.09 781.13 939.98 791.22 936.73 798.78 C 933.44 805.80 925.73 809.06 918.58 810.58 C 922.72 811.87 927.09 813.51 929.83 817.07 C 934.87 823.65 935.18 832.46 939.38 839.46 C 942.32 844.16 948.36 844.03 953.26 844.36 C 953.24 846.30 953.24 848.25 953.25 850.21 C 944.68 851.02 934.51 852.84 927.45 846.60 C 919.16 839.44 919.88 827.08 912.93 819.04 C 909.23 815.01 903.33 814.82 898.26 814.66 C 898.23 823.77 898.28 832.89 898.23 842.01 C 900.82 844.18 904.33 843.80 907.49 844.13 C 907.49 846.16 907.49 848.20 907.50 850.25 C 896.08 850.24 884.66 850.26 873.24 850.24 C 873.24 848.19 873.24 846.16 873.25 844.13 C 875.77 843.91 878.30 843.68 880.84 843.45 C 881.65 842.09 882.44 840.67 882.26 839.04 C 882.17 818.69 882.40 798.33 882.14 777.99 C 880.72 774.80 876.11 776.04 873.24 775.40 C 873.24 773.34 873.24 771.29 873.25 769.25 M 898.29 807.63 C 904.93 807.82 912.75 807.84 917.78 802.79 C 922.67 796.87 922.85 787.07 917.77 781.22 C 912.76 775.98 904.93 776.38 898.28 776.48 C 898.24 786.86 898.21 797.25 898.29 807.63 Z"></path><path fill="#ffffff" opacity="1.00" d=" M 372.32 776.49 C 378.56 774.35 386.04 775.42 390.93 780.04 C 397.25 785.90 399.97 794.59 400.81 802.96 C 401.82 812.94 401.15 823.54 396.50 832.62 C 393.32 838.89 387.27 844.32 379.93 844.55 C 373.96 845.12 367.97 842.38 364.23 837.75 C 358.33 830.59 356.29 821.08 356.00 812.00 C 355.78 803.22 356.77 794.00 361.28 786.28 C 363.79 781.97 367.53 778.15 372.32 776.49 Z"></path><path fill="#ffffff" opacity="1.00" d=" M 815.17 776.14 C 820.99 774.56 827.68 775.59 832.27 779.68 C 838.85 785.50 841.68 794.40 842.54 802.90 C 843.62 813.53 842.84 824.95 837.26 834.33 C 833.91 840.07 827.85 844.62 820.99 844.58 C 815.06 844.96 809.27 842.03 805.69 837.37 C 799.96 830.26 798.02 820.91 797.75 811.98 C 797.51 803.34 798.48 794.33 802.80 786.68 C 805.48 781.87 809.72 777.60 815.17 776.14 Z"></path><path fill="#ffffff" opacity="1.00" d=" M 620.29 807.63 C 620.21 797.25 620.24 786.87 620.27 776.49 C 626.48 776.44 633.56 775.95 638.62 780.26 C 643.27 783.97 643.90 790.53 642.97 796.02 C 642.34 800.40 639.21 804.23 635.13 805.89 C 630.43 807.76 625.26 807.83 620.29 807.63 Z"></path><path fill="#ffffff" opacity="1.00" d=" M 898.29 807.63 C 898.21 797.25 898.24 786.86 898.28 776.48 C 904.93 776.38 912.76 775.98 917.77 781.22 C 922.85 787.07 922.67 796.87 917.78 802.79 C 912.75 807.84 904.93 807.82 898.29 807.63 Z"></path><path fill="#16c1f3" opacity="1.00" d=" M 1095.36 801.77 C 1098.35 798.19 1101.32 794.59 1104.50 791.18 C 1104.24 795.83 1103.81 800.47 1103.43 805.12 C 1107.77 806.89 1112.13 808.64 1116.41 810.58 C 1111.86 811.70 1107.30 812.76 1102.72 813.76 C 1102.27 818.37 1101.94 823.00 1101.49 827.62 C 1098.77 823.87 1096.51 819.84 1094.18 815.86 C 1089.60 816.97 1085.05 818.16 1080.46 819.15 C 1083.45 815.46 1086.64 811.94 1089.68 808.30 C 1087.17 804.36 1084.72 800.38 1082.44 796.31 C 1086.79 798.01 1091.07 799.88 1095.36 801.77 Z"></path><path fill="#16c1f3" opacity="1.00" d=" M 117.72 842.09 C 119.66 837.87 121.67 833.68 123.87 829.59 C 124.79 834.19 125.45 838.84 126.28 843.46 C 130.93 844.11 135.58 844.79 140.23 845.49 C 136.15 847.83 131.93 849.91 127.75 852.07 C 128.61 856.64 129.51 861.21 129.96 865.85 C 126.57 862.70 123.29 859.44 120.03 856.17 C 115.91 858.31 111.84 860.55 107.66 862.57 C 109.52 858.27 111.68 854.11 113.78 849.93 C 110.31 846.74 106.97 843.43 103.73 840.01 C 108.39 840.70 113.04 841.49 117.72 842.09 Z"></path><path fill="#16c1f3" opacity="1.00" d=" M 1066.03 862.23 C 1069.54 859.07 1072.97 855.83 1076.58 852.79 C 1075.68 857.34 1074.68 861.88 1073.59 866.40 C 1077.58 868.90 1081.73 871.11 1085.70 873.65 C 1081.09 874.22 1076.47 874.67 1071.85 875.11 C 1070.84 879.79 1069.93 884.50 1068.75 889.15 C 1066.66 884.96 1065.57 880.13 1062.80 876.37 C 1058.15 876.33 1053.58 877.36 1048.97 877.74 C 1052.48 874.49 1056.07 871.34 1059.59 868.10 C 1057.63 863.84 1055.67 859.58 1053.99 855.21 C 1058.02 857.51 1062.01 859.89 1066.03 862.23 Z"></path><path fill="#16c1f3" opacity="1.00" d=" M 151.87 900.75 C 153.38 896.24 154.81 891.71 156.53 887.29 C 157.95 891.86 159.25 896.47 160.70 901.04 C 165.33 900.98 169.96 900.94 174.58 901.11 C 170.94 904.04 167.01 906.60 163.17 909.26 C 164.60 913.73 166.04 918.20 167.30 922.73 C 163.47 919.99 159.77 917.09 156.04 914.23 C 152.25 916.93 148.48 919.67 144.52 922.13 C 145.92 917.72 147.48 913.36 149.10 909.03 C 145.32 906.06 141.40 903.28 137.70 900.21 C 142.42 900.40 147.15 900.51 151.87 900.75 Z"></path><path fill="#16c1f3" opacity="1.00" d=" M 1018.23 910.14 C 1022.01 912.83 1025.67 915.69 1029.29 918.61 C 1033.26 915.98 1037.07 913.12 1041.07 910.53 C 1039.57 915.02 1037.92 919.46 1036.43 923.96 C 1040.17 926.64 1043.91 929.34 1047.38 932.39 C 1042.72 932.30 1038.07 932.21 1033.42 932.27 C 1032.01 936.68 1030.55 941.08 1028.74 945.35 C 1027.35 940.92 1026.10 936.46 1024.80 932.01 C 1020.10 932.04 1015.40 932.00 1010.72 931.72 C 1014.51 928.98 1018.36 926.34 1022.24 923.73 C 1020.93 919.19 1019.51 914.68 1018.23 910.14 Z"></path><path fill="#16c1f3" opacity="1.00" d=" M 193.21 954.41 C 194.10 949.82 195.00 945.22 196.22 940.71 C 198.16 944.96 199.97 949.27 201.90 953.53 C 206.64 953.00 211.39 952.47 216.14 952.05 C 212.54 955.19 208.92 958.33 205.50 961.68 C 207.51 965.86 209.48 970.06 211.22 974.36 C 207.10 972.15 203.10 969.71 199.05 967.37 C 195.55 970.51 192.10 973.71 188.55 976.80 C 189.46 972.16 190.50 967.55 191.39 962.91 C 187.42 960.66 183.41 958.47 179.54 956.06 C 184.05 955.16 188.64 954.84 193.21 954.41 Z"></path><path fill="#16c1f3" opacity="1.00" d=" M 975.98 960.12 C 979.39 963.35 982.79 966.60 986.09 969.95 C 990.21 967.72 994.31 965.46 998.54 963.44 C 996.60 967.70 994.40 971.82 992.24 975.98 C 995.64 979.25 999.03 982.54 1002.31 985.94 C 997.64 985.29 992.99 984.52 988.32 983.96 C 986.31 988.11 984.31 992.26 982.14 996.33 C 981.12 991.79 980.46 987.19 979.70 982.61 C 975.02 982.04 970.35 981.42 965.72 980.60 C 969.90 978.39 974.10 976.22 978.31 974.07 C 977.47 969.42 976.68 964.78 975.98 960.12 Z"></path><path fill="#16c1f3" opacity="1.00" d=" M 242.08 988.64 C 244.66 992.46 247.00 996.44 249.23 1000.47 C 253.91 999.59 258.53 998.40 263.18 997.39 C 260.21 1001.02 257.06 1004.51 253.99 1008.08 C 256.48 1012.06 259.03 1016.01 261.33 1020.12 C 256.93 1018.40 252.63 1016.44 248.23 1014.72 C 245.26 1018.32 242.24 1021.87 239.12 1025.34 C 239.45 1020.61 239.88 1015.90 240.21 1011.19 C 235.76 1009.44 231.35 1007.58 226.97 1005.67 C 231.61 1004.67 236.24 1003.62 240.89 1002.63 C 241.29 997.97 241.60 993.29 242.08 988.64 Z"></path><path fill="#16c1f3" opacity="1.00" d=" M 927.83 1004.63 C 930.90 1007.89 933.21 1011.79 936.36 1014.99 C 940.97 1014.52 945.18 1011.75 949.69 1010.51 C 947.25 1014.50 944.61 1018.36 941.97 1022.23 C 944.85 1025.89 947.83 1029.47 950.59 1033.23 C 946.04 1032.13 941.55 1030.81 937.04 1029.60 C 934.50 1033.55 931.99 1037.51 929.21 1041.30 C 928.98 1036.62 928.85 1031.95 928.69 1027.28 C 924.16 1026.05 919.63 1024.88 915.13 1023.59 C 919.42 1021.74 923.82 1020.19 928.24 1018.69 C 928.17 1014.00 927.91 1009.31 927.83 1004.63 Z"></path><path fill="#16c1f3" opacity="1.00" d=" M 293.77 1030.46 C 296.79 1033.92 299.58 1037.57 302.34 1041.25 C 306.83 1039.75 311.22 1037.99 315.70 1036.47 C 313.37 1040.45 310.37 1044.01 308.22 1048.09 C 310.66 1052.10 314.07 1055.41 316.86 1059.17 C 312.38 1058.21 308.09 1056.56 303.61 1055.65 C 300.13 1058.86 298.25 1063.52 295.33 1067.26 C 295.12 1062.53 294.95 1057.81 294.72 1053.09 C 290.15 1051.79 285.56 1050.55 280.98 1049.31 C 285.41 1047.55 289.91 1045.95 294.36 1044.25 C 294.05 1039.65 293.77 1035.06 293.77 1030.46 Z"></path><path fill="#16c1f3" opacity="1.00" d=" M 874.37 1042.38 C 876.93 1046.32 879.29 1050.39 881.76 1054.40 C 886.32 1053.30 890.87 1052.11 895.45 1051.07 C 892.53 1054.78 889.34 1058.27 886.24 1061.83 C 888.68 1065.79 891.20 1069.71 893.34 1073.86 C 889.12 1072.25 885.10 1070.12 880.80 1068.74 C 877.06 1071.67 874.57 1075.88 871.18 1079.20 C 871.55 1074.50 872.02 1069.80 872.46 1065.12 C 867.99 1063.35 863.55 1061.52 859.13 1059.64 C 863.74 1058.39 868.69 1058.05 873.05 1056.07 C 873.90 1051.56 873.82 1046.93 874.37 1042.38 Z"></path><path fill="#16c1f3" opacity="1.00" d=" M 350.03 1064.93 C 353.44 1068.27 356.80 1071.67 360.18 1075.06 C 364.35 1072.92 368.48 1070.69 372.69 1068.62 C 370.77 1072.86 368.64 1077.01 366.52 1081.16 C 369.88 1084.42 373.35 1087.57 376.51 1091.03 C 371.85 1090.43 367.22 1089.62 362.56 1089.03 C 360.70 1093.25 358.67 1097.39 356.36 1101.38 C 355.52 1096.86 354.79 1092.32 354.10 1087.78 C 349.34 1087.01 344.57 1086.34 339.81 1085.66 C 344.03 1083.46 348.24 1081.25 352.49 1079.11 C 351.66 1074.38 350.79 1069.67 350.03 1064.93 Z"></path><path fill="#16c1f3" opacity="1.00" d=" M 813.75 1087.12 C 814.65 1082.54 815.58 1077.97 816.74 1073.45 C 818.73 1077.59 820.57 1081.81 822.30 1086.07 C 826.91 1085.65 831.51 1084.95 836.15 1085.03 C 832.80 1088.10 829.34 1091.06 825.97 1094.12 C 827.94 1098.38 829.92 1102.64 831.74 1106.99 C 827.58 1104.73 823.53 1102.29 819.42 1099.97 C 815.98 1103.19 812.51 1106.38 808.90 1109.41 C 809.86 1104.78 810.95 1100.17 811.83 1095.52 C 807.73 1093.35 803.64 1091.15 799.79 1088.57 C 804.44 1088.05 809.10 1087.61 813.75 1087.12 Z"></path><path fill="#16c1f3" opacity="1.00" d=" M 410.44 1092.85 C 414.32 1095.58 418.02 1098.56 421.89 1101.31 C 425.64 1098.61 429.40 1095.90 433.31 1093.40 C 431.92 1097.87 430.27 1102.24 428.82 1106.69 C 432.61 1109.42 436.38 1112.19 440.00 1115.16 C 435.30 1115.04 430.60 1114.97 425.90 1114.83 C 424.38 1119.30 422.87 1123.77 421.37 1128.25 C 419.85 1123.73 418.51 1119.17 417.14 1114.62 C 412.38 1114.46 407.62 1114.50 402.86 1114.48 C 406.67 1111.61 410.66 1108.99 414.60 1106.30 C 413.18 1101.82 411.74 1097.36 410.44 1092.85 Z"></path><path fill="#16c1f3" opacity="1.00" d=" M 750.94 1110.01 C 752.42 1105.54 753.94 1101.08 755.61 1096.68 C 756.98 1101.21 758.29 1105.76 759.72 1110.27 C 764.45 1110.19 769.19 1110.29 773.93 1110.51 C 770.01 1113.17 766.12 1115.86 762.21 1118.52 C 763.55 1123.01 765.00 1127.48 766.18 1132.03 C 762.40 1129.26 758.71 1126.38 754.98 1123.56 C 751.13 1126.28 747.31 1129.04 743.35 1131.58 C 744.80 1127.11 746.43 1122.71 748.02 1118.30 C 744.23 1115.58 740.43 1112.85 736.90 1109.80 C 741.58 1109.89 746.26 1110.04 750.94 1110.01 Z"></path><path fill="#16c1f3" opacity="1.00" d=" M 486.09 1119.71 C 489.49 1116.59 492.86 1113.45 496.43 1110.53 C 495.70 1115.06 494.71 1119.55 493.70 1124.04 C 497.76 1126.32 501.85 1128.57 505.81 1131.05 C 501.24 1131.69 496.63 1132.09 492.03 1132.48 C 490.93 1137.00 490.09 1141.58 488.98 1146.10 C 486.86 1141.97 485.05 1137.70 483.17 1133.47 C 478.40 1134.00 473.63 1134.51 468.86 1134.98 C 472.48 1131.83 476.09 1128.67 479.61 1125.41 C 477.59 1121.22 475.63 1117.01 473.85 1112.72 C 478.01 1114.91 482.04 1117.32 486.09 1119.71 Z"></path><path fill="#16c1f3" opacity="1.00" d=" M 691.88 1112.65 C 692.93 1117.12 693.60 1121.67 694.31 1126.22 C 699.00 1126.90 703.70 1127.50 708.39 1128.26 C 704.25 1130.56 699.98 1132.62 695.80 1134.85 C 696.61 1139.42 697.43 1143.99 698.14 1148.59 C 694.70 1145.43 691.33 1142.23 688.04 1138.93 C 683.89 1141.06 679.79 1143.30 675.60 1145.35 C 677.50 1141.10 679.64 1136.96 681.73 1132.81 C 678.38 1129.51 674.89 1126.35 671.64 1122.96 C 676.33 1123.57 681.01 1124.33 685.70 1124.98 C 687.71 1120.84 689.70 1116.69 691.88 1112.65 Z"></path><path fill="#16c1f3" opacity="1.00" d=" M 552.18 1129.84 C 555.26 1126.29 558.26 1122.67 561.46 1119.24 C 561.13 1123.90 560.70 1128.56 560.30 1133.22 C 564.67 1134.98 569.07 1136.68 573.33 1138.71 C 568.73 1139.80 564.10 1140.78 559.52 1141.98 C 559.23 1146.63 558.87 1151.28 558.44 1155.93 C 555.92 1151.94 553.49 1147.90 551.03 1143.88 C 546.41 1145.01 541.78 1146.14 537.12 1147.09 C 540.26 1143.51 543.46 1139.99 546.49 1136.33 C 543.97 1132.42 541.48 1128.49 539.21 1124.43 C 543.57 1126.13 547.87 1127.99 552.18 1129.84 Z"></path><path fill="#16c1f3" opacity="1.00" d=" M 619.11 1131.62 C 621.69 1127.67 624.25 1123.70 626.87 1119.78 C 627.21 1124.46 627.36 1129.15 627.49 1133.86 C 632.05 1135.19 636.65 1136.39 641.25 1137.59 C 636.92 1139.43 632.49 1141.01 628.03 1142.47 C 628.08 1147.11 628.36 1151.74 628.45 1156.38 C 625.34 1153.01 622.57 1149.37 619.81 1145.72 C 615.36 1147.30 610.96 1149.02 606.51 1150.57 C 608.93 1146.59 611.60 1142.77 614.24 1138.94 C 611.33 1135.25 608.30 1131.67 605.50 1127.91 C 610.07 1129.00 614.58 1130.34 619.11 1131.62 Z"></path></svg>